<svg xmlns="http://www.w3.org/2000/svg" viewBox="0 0 32 32"><g fill="#132743" data-name="Layer 2"><path d="M22 19a1 1 0 0 1-.7-.28l-4.24-4.1a6.67 6.67 0 0 1 0-9.64 7.17 7.17 0 0 1 9.88 0 6.67 6.67 0 0 1 0 9.64l-4.24 4.1a1 1 0 0 1-.7.28m0-14a5.07 5.07 0 0 0-3.55 1.42 4.66 4.66 0 0 0 0 6.76L22 16.61l3.55-3.43a4.66 4.66 0 0 0 0-6.76A5.1 5.1 0 0 0 22 5M11 29a1 1 0 0 1-.5-.13l-7-4A1 1 0 0 1 3 24V6a1 1 0 0 1 .5-.87 1 1 0 0 1 1 0l7 4a1 1 0 0 1 .5.87v18a1 1 0 0 1-.5.87 1 1 0 0 1-.5.13m-6-5.58 5 2.86v-15.7L5 7.72Z"/><path d="M11 29a1 1 0 0 1-.5-.13A1 1 0 0 1 10 28V10a1 1 0 0 1 .5-.87l6-3.43a1 1 0 0 1 1.37.38 1 1 0 0 1-.37 1.36L12 10.58v15.7l5.5-3.15a1 1 0 1 1 1 1.74l-7 4a1 1 0 0 1-.5.13"/><path d="M25 29a1 1 0 0 1-.5-.13l-7-4A1 1 0 0 1 17 24v-9a1 1 0 0 1 2 0v8.42l5 2.86V16a1 1 0 0 1 2 0v12a1 1 0 0 1-.5.87 1 1 0 0 1-.5.13m-3-16a3 3 0 1 1 3-3 3 3 0 0 1-3 3m0-4a1 1 0 1 0 1 1 1 1 0 0 0-1-1"/></g><path d="M0 0h32v32H0z" style="fill:none"/></svg>