<svg xmlns="http://www.w3.org/2000/svg" width="220" height="256" fill="none"><g clip-path="url(#a)"><mask id="b" width="220" height="256" x="0" y="0" maskUnits="userSpaceOnUse" style="mask-type:luminance"><path fill="#fff" d="M219.981 0H.019v256h219.962z"/></mask><g mask="url(#b)"><path fill="#FEFEFE" d="M28.006 129.348c-2.001-1.796-3.472-3.998-4.756-6.323-2.053-3.719-3.354-7.695-3.816-11.92-.429-3.93-.186-7.805 1.462-11.46 1.461-3.237 3.773-5.602 7.443-6.183 2.932-.465 5.617.377 8.094 1.944.372.235.743.474 1.123.716.257-.303.147-.61.15-.89q.165-14.977 6.269-28.662c3.082-6.913 7.183-13.155 12.258-18.782 6.646-7.37 14.502-13.093 23.53-17.19 6.392-2.901 13.08-4.845 20.065-5.748 4.062-.525 8.138-.828 12.227-.658 9.149.378 17.962 2.284 26.395 5.91 6.464 2.778 12.422 6.381 17.831 10.851 6.964 5.753 12.715 12.545 17.151 20.426 3.443 6.116 6.04 12.557 7.615 19.398.145.63.35.866 1.093.687 5.22-1.267 9.403.639 12.782 4.486 3.09 3.519 4.546 7.76 4.991 12.39.106 1.101.142 2.195.129 3.295-.003.301 0 .597.181.858-.181 1.228-.063 2.476-.352 3.703-.961 4.088-2.607 7.795-5.77 10.688-3.884 3.552-8.284 4.681-13.314 2.761-.834-.319-.863-.319-1.199.711-2.026 6.218-4.91 12.018-8.577 17.431-1.605 2.371-3.314 4.669-5.222 6.811-.642.719-1.065 1.449-.936 2.474.104.825-.029 1.664-.314 2.461-.208.347-.525.457-.91.395-.384-.061-.853-.179-.943.336-.077.44.143.867.576 1.11.179.101.387.146.563.259.215.14.438.461.286.569-.815.574-.105 1.126-.042 1.683.023.204.013.411.012.619-.074.54-.043 1.092-.21 1.621-.14.27-.297.568-.662.467-.354-.097-.412-.45-.354-.736.146-.729-.199-1.348-.408-1.985-.632-1.911-1.22-3.83-2.192-5.628-.53-.982-1.109-1.953-1.576-2.979-.389-.853-.806-1.738-1.693-2.247-.153-.088-.321-.238-.344-.4-.261-1.793-1.971-2.74-2.533-4.403-.361-1.069-1.455-1.782-2.308-2.544-.681-.608-.996-1.307-1.19-2.127-.056-.234-.091-.488.12-.666.241-.203.505-.123.755.003.161.08.302.193.458.282.159.091.343.183.482.009.111-.137-.006-.292-.105-.395-.824-.865-.571-1.652.151-2.423a2.45 2.45 0 0 0 .634-1.164c.342-.837.922-1.53 1.396-2.287 3.434-5.497 5.651-11.447 6.391-17.878.907-7.879-.368-15.435-3.75-22.632-2.662-5.665-6.373-10.564-10.958-14.797-4.847-4.478-10.366-7.938-16.444-10.53-6.124-2.61-12.507-4.272-19.126-4.841-11.223-.966-22.128.403-32.532 4.942-6.104 2.663-11.635 6.169-16.503 10.746-5.84 5.49-10.103 11.954-12.663 19.538-.448 1.33-.708 2.71-1.12 4.05a1 1 0 0 1-.139.244c-.57 1.266-.686 2.643-.857 3.984-.19 1.497-.228 3.016-.236 4.535-.012 2.086.208 4.15.438 6.213.062.552-.031.919-.476 1.224-.839.576-1.627 1.199-2.131 2.117-.16.288-.446.488-.766.595-1.383.463-2.234 1.539-3.038 2.65-1.388 1.918-2.947 3.662-4.845 5.1-1.162.881-2.062 2.074-3.33 2.836-.076.046-.153.118-.168.203-.297 1.767-2.032 2.417-2.925 3.725-.271.397-.73.744-1.317.427z"/><path fill="#9D9D9D" d="M164.34 149.557c.066-1.213.366-2.419.111-3.641-.068-.325.182-.483.353-.678 6.649-7.523 11.584-16.022 14.678-25.575.116-.359.07-.971.833-.604 5.252 2.53 10.742.784 14.381-3.217 3.178-3.494 4.704-7.675 5.21-12.291.041-.373-.065-.789.318-1.06.495 3.173 1.311 6.287 1.851 9.449.56 3.277 1.184 6.57 1.138 9.905-.034 2.58-.225 5.216-1.684 7.48-2.302 3.576-5.717 5.159-9.907 5.218a9.7 9.7 0 0 1-4.499-1.014c-.731-.362-.975-.142-1.196.55-1.971 6.165-4.802 11.924-8.353 17.331-1.75 2.665-3.734 5.159-5.762 7.62-.331.401-1.05.508-.986 1.222.088.198.165.449-.044.56-.219.114-.364-.124-.49-.287-.268-.351-.343-1.061-.978-.804-.56.227-.417.855-.39 1.353.101 1.871.281 3.74.155 5.618-.059.867-.067 1.725-.987 2.244-.47.264-.367.778-.224 1.212.282.856.367 1.746.525 2.624.053.293.074.593.046.89-.039.415-.049.921-.594.952-.461.026-.604-.415-.722-.791-.117-.373.036-.87-.718-.819-.401.025-.401-.594-.407-.973-.023-1.518.039-3.039-.216-4.544-.064-.387.15-.938-.306-1.118-.42-.167-.76.242-1.075.512-.342.292-.693.571-1.124.72-.192.067-.419.163-.569-.059-.14-.206-.024-.408.108-.572.318-.397.72-.712 1.104-1.043.317-.272.599-.584.911-.854 1.507-1.298.952-2.813.503-4.319-.468-1.572-.509-3.225-.926-4.808-.122-.462-.029-.88.704-.711-.649-.138-1.359-.13-1.208-1.057-.3-1.013.285-2.012.002-3.053-.135-.493.083-1.099.432-1.569z"/><path fill="#FE8686" d="M19.41 227.55c-1.195-.929-2.541-1.654-3.464-2.927-1.136-1.571-1.721-3.317-1.913-5.211-.423-4.194-.838-8.39-1.236-12.587-.328-3.46-.607-6.923-.943-10.382-.316-3.25-.685-6.495-1.014-9.745-.268-2.629-.497-5.262-.771-7.891-.237-2.273-.373-4.569-.806-6.806-.598-3.083 2.241-6.816 5.296-6.36.233.035.477 0 .716-.004.29-.344.676-.316 1.065-.28.565.139 1.13.278 1.714.103 2.845.238 5.695.402 8.54.626 3.441.145 6.868.51 10.309.636.423.015.822.115 1.213.266.606.618 1.357.696 2.193.75 1.98.13 3.961.242 5.937.461 1.029.115 2.073.149 3.111.223 1.508.106 3 .342 4.502.494.891.09 1.793.118 2.676-.012.565-.083 1.125-.102 1.689-.134.106-.021.214-.021.322-.01.721.202 1.448.28 2.188.094 4.24.15 8.463.552 12.691.875 1.389.119 2.78.264 4.166.331 1.545.075 3.087.247 4.638.235 1.85-.014 3.671.356 5.513.458 1.634.091 3.268.211 4.88.52.624.069 1.207.294 1.792.504.618.221 1.08.628 1.335 1.229.393.926.768 1.861.928 2.863.48 1.87.64 3.793.94 5.691a177 177 0 0 1 .872 6.065c.648 4.174 1.143 8.369 1.808 12.541.614 3.847 1.17 7.704 1.722 11.561.314 2.206.761 4.395.922 6.623.27 1.5.565 2.995.689 4.517.068.704.366 1.38.272 2.105-.254 1.006.222 1.991.092 2.998-.042.321.07.676-.039.972-.383 1.045-.731 2.095-.85 3.21-.369.467-.928.462-1.439.58-2.362-.203-4.732-.299-7.098-.443-1.569-.096-3.135-.226-4.707-.284-2.589-.115-5.175-.243-7.756-.459-1.219-.102-2.443-.123-3.66-.182-2.62-.127-5.239-.286-7.855-.444-3.508-.212-7.017-.403-10.524-.633-2.614-.17-5.238-.28-7.855-.432-2.496-.144-4.998-.229-7.49-.471-1.183-.115-2.38-.134-3.57-.183-3.692-.149-7.375-.448-11.067-.606-3.094-.133-6.182-.433-9.28-.501-.551-.012-.94-.342-1.397-.544z"/><path fill="#9D9D9D" d="M19.41 227.55q6.424.365 12.849.734c5.207.299 10.416.573 15.621.91q4.551.294 9.105.529c5.209.267 10.415.59 15.622.891 4.077.235 8.153.468 12.23.714 1.695.103 3.388.24 5.082.362.552.224.954.641 1.222 1.137.55 1.016 1.366 1.793 2.258 2.647.178-.467.494-.689.984-.467.516.234.962.546.914 1.181-.035.468.107.81.476 1.075.2.144.343.248.596-.014.474-.495 1.164-.423 1.394.238.57 1.642 2.102 1.798 3.376 2.367.158.071.36.053.509.154.281.189.551.397.277.787-2.714-.071-5.404-.454-8.11-.65-1.842-.133-3.681-.305-5.525-.412-4.615-.267-9.233-.501-13.848-.758-3.036-.168-6.072-.353-9.108-.529q-7.905-.451-15.81-.905c-4.047-.233-8.096-.463-12.145-.71-2.5-.153-4.997-.337-7.496-.5-.276-.018-.523-.072-.752-.238-3.507-2.548-6.828-5.305-9.723-8.545z"/><path fill="#9F9E9E" d="M163.972 154.332c.081.414.279.688.74.485.875-.387.826.399 1.01.813.109.244-.127.399-.369.279-.232-.116-.425-.313-.724-.542.109.614.16 1.151.302 1.663.548 1.973.534 4.072 1.43 5.979.27.576-.439 1.033-.726 1.529-.689 1.19-1.879 1.902-2.801 2.882.509-.167 1.031-.35 1.327-.793.401-.599 1.07-.609 1.63-.819.479-.179.282.261.292.493.1 2.175.392 4.339.212 6.556.5-.047.466-.687.875-.511.415.179.128.573.174.87.068.447-.013 1.175.52 1.171.457-.004.28-.711.235-1.076-.126-1.021-.178-2.061-.582-3.036-.338-.816-.114-1.341.678-1.789.717-.405.507-1.161.545-1.761.127-2.001-.036-4.001-.189-5.998-.048-.628 0-1.282.699-1.459.78-.197 1.111.357 1.251 1.049.022.112.033.335.244.259.058-.021.056-.213.08-.326.376 1.331.436 2.699.296 4.053-.502 4.85-1.046 9.695-1.597 14.539-.366 3.228-1.229 6.363-1.874 9.538-.502 2.478-1.028 4.954-1.737 7.385-1.054 3.606-2.457 7.083-3.912 10.544-.992 2.36-1.865 4.77-2.834 7.14-1.078 2.637-2.615 4.869-5.422 5.97-1.023.401-1.914 1.111-3.019 1.339-.916-.455-1.482-1.249-1.946-2.104-.233-.433-.034-.875.317-1.214 2.973-2.873 4.91-6.407 6.511-10.153.228-.532.482-1.021.944-1.384.425-.331.566-.823.749-1.296.321-.826.406-1.746 1.031-2.453.199-.226-.16-1.185-.458-1.298-.291-.11-.406.101-.386.321.086.972-.505 1.533-1.186 2.062-.48.375-.815.869-1.012 1.446-.435 1.266-1.408 2.027-2.51 2.671-1.982-.361-3.923-.88-5.84-1.488-.113-.036-.186-.142-.256-.24-.252-.682.071-1.172.599-1.52.983-.648 1.668-1.477 2.015-2.624.261-.865.852-1.592 1.492-2.201.735-.698 1.398-1.409 1.894-2.303.244-.437.558-.826.676-1.332.139-.595.482-1.073.927-1.494.617-.583 1.083-1.292 1.257-2.119.189-.903.591-1.709.901-2.549.518-1.411 1.349-2.678 1.697-4.181.56-2.427 1.189-4.841 1.595-7.299.2-1.215.591-2.45.012-3.68-.075-.16-.076-.38.032-.52.668-.877.489-1.842.322-2.811.052-.825.378-1.586.558-2.382.448-2.911 1.492-5.685 1.987-8.586.09-.527.197-1.052.268-1.581.106-.799.3-1.564.705-2.268l.207-1.766c.018-.08.069-.104.144-.08"/><path fill="#9F9E9E" d="M101.925 240.795c-.056-.351-.176-.625-.614-.607-.758.032-1.37-.376-1.979-.734-.357-.21-.689-.426-1.097-.553-.37-.114-.878-.168-.566-.897.195-.451-.393-.727-.812-.875-.255-.09-.3.135-.252.322.252.979-.376.536-.63.335-.516-.406-1.478-.597-.93-1.658.165-.32-.843-1.147-1.167-.968-.447.245.128.567-.012.855-.856-.17-2.763-2.258-3.947-4.324 3.124.17 6.249.338 9.373.513.823.047 1.645.123 2.468.185.257.167.597.217.746.533a.54.54 0 0 0 .519.425c1.037.047 2.028.479 3.084.351a9.4 9.4 0 0 1 2.057-.037c2.237.225 4.436-.291 6.338-1.199 2.626-1.253 5.355-2.491 7.446-4.664.913-.95 2.106-1.542 3.107-2.396 1.968-1.678 4.047-3.229 5.976-4.957.257-.231.413-.497.507-.814.877-.907 2.069-1.277 3.163-1.795 4.229-2.002 8.428-4.064 12.657-6.067.453-.215.878-.524 1.42-.473.233.099.39.036.459-.219.763-.57 1.535-1.118 2.547-1.122.376.527-.009.914-.293 1.262-1.285 1.574-2.696 3.043-4.277 4.316-.935.753-1.787 1.577-2.651 2.399-.395.377-.804.729-1.414.619-.482-.087-.764.223-.897.584-.585 1.567-1.82 2.645-3.093 3.508-2.684 1.821-4.848 4.218-7.368 6.205-1.038.818-2.101 1.609-3.113 2.461-2.463 1.196-4.916 2.41-7.391 3.583-4.143 1.964-8.3 3.902-12.453 5.847-1.255.589-2.557.754-3.916.427-.982-.238-2.015-.077-2.993-.369z"/><path fill="#FEFBF9" d="M28.006 129.348c.438-.061.783-.289 1.065-.611.745-.849 1.432-1.753 2.39-2.394.2-.134.35-.362.312-.613-.115-.783.402-1.113.968-1.425.208-.115.445-.211.601-.379 1.667-1.79 3.79-3.097 5.356-4.985.636-.768 1.16-1.66 1.794-2.401.794-.928 1.49-2.126 2.898-2.365.348-.059.627-.243.761-.562.454-1.078 1.4-1.665 2.306-2.272.319-.213.338-.374.287-.713a43.4 43.4 0 0 1-.396-8.898c.119-2.087.287-4.198 1.066-6.187.31.324.223.697.151 1.08-.22 1.184-.423 2.37-.475 3.577-.168 1.612-.187 3.225-.185 4.846.003 2.86.465 5.657.931 8.456-.072.819.205 1.59.414 2.356.182.669.045 1.202-.456 1.606-1.123.904-1.956 2.086-3.017 3.047-.544.493-.985 1.148-1.837 1.158-.251.002-.223.236-.307.38-.438.745-.903 1.479-1.515 2.092-1 1.002-1.862 2.116-3.038 2.986-1.071.792-1.802 2.037-2.785 2.987-.914.883-1.76 1.824-2.615 2.762-.632.13-1.056-.242-1.49-.606-.471-.396-.97-.763-1.381-1.226-.545-.624-1.346-.978-1.805-1.694z"/><path fill="#9D9D9D" d="M128.678 231.307c-.496-.185-.109-.327.032-.455 1.101-1.009 2.365-1.813 3.498-2.792 1.534-1.325 2.866-2.933 4.484-4.064 1.618-1.133 3.126-2.329 4.519-3.7.316-.309.493-.667.654-1.105.185-.506.419-1.451 1.448-.871.264.149.562-.141.769-.355 2.064-2.144 4.548-3.849 6.497-6.116.481-.559 1.046-1.069 1.22-1.833.198-.607.97-.944.815-1.717.01-.269.096-.531.081-.803a.55.55 0 0 1 .158-.306c.184-.352.458-.64.785-.842.669-.415 1.102-.976 1.322-1.728.253-.866.82-1.502 1.57-1.982.54-.347.81-.827.588-1.441-.259-.716.329-.724.692-.872.578-.235.362.37.542.563.653.7.625 1.225-.105 1.966-.466.472-.486 1.375-.719 2.081-.092.281-.136.671-.34.808-1.521 1.015-1.678 2.811-2.428 4.244-.954 1.821-2.115 3.489-3.228 5.198-.617.948-1.313 1.826-2.266 2.493-.609.426-.347 1.016.075 1.373.579.491.958 1.11 1.388 1.702-1.926.95-3.844 1.915-5.779 2.847q-6.46 3.105-12.932 6.184c-1.104.525-2.225 1.014-3.338 1.519z"/><path fill="#ABA7A2" d="M29.81 131.042c.952.582 1.768 1.385 2.858 1.74.976-.001 1.797.357 2.47 1.063-.055 1.038-.454 1.391-1.379 1.221l-2.35-2.144c-.43-.714-1.253-1.094-1.598-1.88"/><path fill="#FE8686" d="M47.556 95.487c.426-2.696 1.334-5.246 2.398-7.744C53.377 79.701 58.77 73.2 65.708 67.95c8.648-6.543 18.45-10.318 29.165-11.762 10.255-1.383 20.348-.573 30.169 2.729 11.732 3.945 21.558 10.586 28.682 20.846 4.262 6.137 6.881 12.92 7.577 20.39.958 10.287-1.642 19.657-7.358 28.217-.198.296-.367.61-.549.916-.742 1.048-1.39 2.166-2.282 3.106a2.8 2.8 0 0 0-1.075 1.125 1 1 0 0 1-.166.194c-.736.483-.862.48-1.065-.251-.249-.899-.963-1.399-1.549-2.013-.936-.98-.954-1.057-.221-2.178.518-.791 1.043-1.578 1.532-2.389.233-.387.42-.78.406-1.245.339-1.331.93-2.575 1.388-3.865 1.225-3.459 1.618-7.075 2.151-10.665.228-1.531.355-3.089.338-4.625-.081-7.655-1.354-15.049-5.039-21.892-1.558-2.891-3.484-5.48-5.939-7.667-3.121-2.78-7.324-1.728-8.74 2.188-1.359 3.758.144 8.777 4.388 10.472.889.356 1.538 1.017 2.141 1.725 3.44 4.038 5.243 8.71 5.714 13.991.402 4.492-.786 8.464-3.204 12.183-.946 1.454-2.001 2.82-3.019 4.215-.461.373-.751.905-1.194 1.296a1.3 1.3 0 0 0-.253.366c-.551 1.138-1.416 1.359-2.404.574-1.931-1.536-3.881-3.078-5.995-4.324-1.559-.92-3.074-1.941-4.713-2.731-1.592-.767-2.965-1.88-4.469-2.786-.434-.261-.818-.633-1.31-.763-1.695-.451-3.113-1.457-4.638-2.252a2.2 2.2 0 0 0-.683-.2c-1.849-.285-3.459-1.101-4.928-2.22-.347-.263-.715-.418-1.151-.43-.329-.01-.683 0-.972-.144-1.647-.821-3.505-1.121-5.099-2.072-.153-.091-.311-.265-.471-.241-1.167.179-2.138-.481-3.163-.799-1.386-.43-2.845-.629-4.17-1.25-.44-.206-.887-.338-1.383-.303-.422.029-.834-.065-1.229-.216-1.942-.747-4.032-.722-6.035-1.156-.173-.038-.383 0-.523-.099-1.504-1.046-3.334-.929-4.983-1.093-1.9-.191-3.823-.036-5.701-.641a2.01 2.01 0 0 0-2.014.45c-.322.3-.783.251-1.203.235a22.4 22.4 0 0 0-4.274.265c-2.286.35-4.409 1.128-6.535 1.949-.307.118-.609.254-.931.32-2.19.449-3.998 1.68-5.764 2.927-1.633 1.152-3.367 2.144-4.981 3.32-.272.199-.614.444-.946.038-.309-2.149-.35-4.306-.276-6.471.03-.864-.002-1.729.01-2.592.285-1.22.224-2.492.536-3.708.123-.48.16-.972.248-1.457"/><path fill="#FEFDFC" d="M150.92 132.198c1.05-.78 1.553-2.022 2.473-2.912-.06.677-.56 1.122-.959 1.568-.599.667-.411 1.139.124 1.671.254.252.728.527.313.944-.356.357-.812.313-1.199-.055-.129-.123-.258-.248-.399-.357-.122-.095-.268-.148-.404-.031-.112.096-.057.219-.011.328.333.791.602 1.511 1.311 2.199.984.954 2.362 1.736 2.636 3.335.104.605.444 1.166 1.116 1.402.383.135.501.449.555.837.121.876.427 1.564 1.295 2.087.737.444.966 1.443 1.375 2.221.096.182.084.47.222.57.885.644.898 1.749 1.414 2.593 1.031 1.688 1.47 3.626 2.067 5.5.222.694.379 1.292.293 2.027-.068.582.291.17.478.055-.384 2.578-.73 5.156-1.522 7.662-.498 1.581-.775 3.233-1.152 4.853-.484.218-.566-.163-.641-.466-.115-.466-.146-.966-.03-1.418.237-.929-.035-1.819-.062-2.727-.044-1.411-.255-2.74-.883-4.026-.361-.74.04-1.608-.089-2.375-.127-.755-1.084-1.153-1.186-2.021-.038-.322-.146-.642-.137-.969.015-.591-.129-1.104-.546-1.55-.311-.333-.463-.76-.513-1.216-.125-1.113-.58-2.089-1.136-3.057-.576-1.003-1.055-2.055-1.877-2.9a1 1 0 0 1-.285-.645c-.017-.991-.628-1.618-1.292-2.231-.374-.345-.639-.783-.95-1.182-.747-.963-1.241-2.072-2.362-2.82-.716-.479-1.252-1.36-2.028-1.9-.21-.464.139-.716.392-.993.642-.701 1.387-1.305 1.968-2.064.178-.23.364-.456.564-.667l-.01.015c.248-.521.774-.808 1.076-1.284zm13.052 22.134-.145.08c.017-.485-.061-.91-.439-1.292-.326-.329-.61-.799.263-.794.178.001.306-.027.284-.222a.37.37 0 0 0-.378-.319c-.874.083-.991-.586-1.199-1.162-.108-.298-.312-.797.03-.853.352-.056.664-.643 1.122-.154.229.243.559.074.83-.06.041 1.605-.345 3.177-.368 4.776"/><path fill="#FE8B89" d="M47.556 95.487c-.106 1.703-.463 3.372-.687 5.06-.12-.127-.11-.262-.027-.402-.069-1.567.424-3.063.574-4.603q.07-.026.14-.055"/><path fill="#9F9E9E" d="M166.683 167.475c.036-.247-.036-.606.283-.577.339.031.378.415.42.706.029.206.022.479-.253.485-.414.01-.418-.34-.45-.615z"/><path fill="#B3B5BB" d="M98.523 229.877c-3.662-.225-7.323-.461-10.984-.67-1.788-.102-3.58-.144-5.367-.236-3.04-.157-6.075-.35-9.114-.494-3.248-.154-6.499-.259-9.747-.4q-8.137-.357-16.276-.732c-3.666-.169-7.334-.313-10.996-.537-3.181-.195-6.366-.348-9.536-.761-1.516-.198-3.077-.219-4.615-.273-2.835-.098-4.187-1.396-5.144-3.786-.604-1.509-.787-3.116-.91-4.716-.394-5.188-.695-10.384-1.127-15.568-.45-5.391-1.1-10.764-1.718-16.138-.377-3.279-.639-6.571-.959-9.856a64 64 0 0 0-.294-2.568 9 9 0 0 1 .342-4.04c.292-.908 1.157-.957 1.907-1.086 2.17-.373 4.335-.132 6.504.077 1.87.18 3.748.267 5.622.403 3.954.289 7.908.589 11.864.871 2.766.198 5.534.365 8.3.566 3.806.276 7.61.58 11.416.86 2.706.199 5.414.37 8.12.566 3.925.284 7.85.583 11.774.867 2.706.195 5.414.374 8.12.563 1.726.12 3.466.142 5.17.4 1.324.2 2.375 1.101 3.31 2.01.474.462.267 1.259.348 1.896.473 3.686.83 7.387 1.312 11.072.504 3.857 1.102 7.703 1.663 11.554.394 2.703.739 5.414 1.205 8.105.482 2.78.895 5.576 1.292 8.365.418 2.938 1.039 5.854 1.226 8.825.058.222-.084.301-.203.154-.186-.23-.174-.549-.179-.683.177.683.319 1.507-.458 2.189-.193.17-.097.508-.117.772-.095 1.262-.816 1.596-1.92.905-.205.532.26.994.168 1.522z"/><path fill="#FDF4E9" d="m26.573 166.381.014-.365c.295-.387.413-.876.724-1.254v.003a2.06 2.06 0 0 1 .83-1.404c1.13-1.187 1.096-1.066 2.685-.615 2.17.618 4.353 1.182 6.644 1.323 3.358.207 6.713.491 10.053.927 1.821.238 3.667.242 5.507.263 1.039.011 2.07.238 3.113.287 1.748.085 3.474.362 5.207.584.782.1 1.598-.017 2.4-.01 1.886.013 3.734.358 5.606.466 1.085.063 2.193.145 3.266.389.4.092.768.025 1.15-.045.544-.1 1.078-.098 1.55.24.475.34.701.742.239 1.265a8 8 0 0 1-.179.206c-.39.246-.785.486-1.01.916-.206.359-.583.421-.93.539-3.563-.273-7.125-.551-10.689-.814-.684-.051-1.372-.045-2.057-.065-.714-.222-1.468.083-2.18-.166l-.082-.011-.083.006c-.969-.267-1.95-.008-2.925-.042-2.206-.074-4.392-.359-6.586-.529-3.14-.242-6.282-.51-9.424-.765-.488-.04-.892-.318-1.35-.442-2.516-.316-5.051-.364-7.577-.555-1.306-.098-2.61-.22-3.916-.331zm76.096 52.041-2.175-14.456c-.582-3.879-1.173-7.756-1.737-11.637-.226-1.552-.394-3.113-.588-4.67.448-.827 1.103-1.283 2.085-1.152.501.349.552.887.592 1.427.169 2.319.809 4.563 1.109 6.858.233 1.792.469 3.586.674 5.381.205 1.804.585 3.574 1 5.334.157.666.281 1.335.42 2.003.536 2.594 1.346 5.061 3.306 6.989 1.294 1.27 2.795 1.761 4.564 1.215q.726-.222 1.439-.491c.908-.344 1.119-.191 1.22.831.025.298-.155.567-.11.866 0 1.434-.401 2.773-.978 4.071-.491.386-1.069.319-1.624.264-2.759-.279-5.437-.896-8.006-1.955-.474-.196-.921-.414-1.191-.878"/><path fill="#BDBBBB" d="m103.555 225.012-.182-2.119c.569-.335.954.122 1.371.345 1.517.811 3.077 1.445 4.845 1.261 1.254-.131 2.44-.523 3.576-1.059 1.449-.685 2.927-1.32 4.181-2.352.312-.135.639-.162.973-.15.385.082.76.087 1.098-.16.259-.159.492-.361.789-.453.448-.038.831-.306 1.272-.366 1.123-.311 2.255-.59 3.331-1.048.449.009.831-.436 1.313-.199.287.51-.065.84-.374 1.133-.281.267-.544.53-.689.894-.478.573-1.17.812-1.813 1.105-4.607 2.105-9.103 4.442-13.734 6.494-1.553.689-3.048 1.499-4.621 2.141-.303.125-.608.257-.944.253-.381-.005-.602-.214-.438-.569.789-1.716.191-3.433.046-5.15z"/><path fill="#C0B5A7" d="M99.775 176.215c-1.15.079-2.247-.332-3.383-.378-.212-.642-.462-1.276-.627-1.93-.292-1.154-.992-1.828-2.163-2.048-.282-.053-.55-.191-.824-.29a19 19 0 0 1-2.566-.979c-1.744-.819-3.645-1.114-5.508-1.532-1.434-.322-2.868-.573-4.338-.268-.148.031-.32.051-.441-.028-1.235-.807-2.538-.669-3.861-.296-.085.024-.177-.015-.261-.045-.25-.409.083-.701.301-.883.835-.689 1.623-1.46 2.671-1.847.852-.209 1.702-.204 2.565-.043 2.568.481 5.2.556 7.727 1.316 2.396.72 4.53 1.896 6.601 3.268 1.79 1.186 2.855 2.91 3.906 4.672.233.389.549.812.2 1.311"/><path fill="#C3BEBA" d="M117.356 221.295c-.553 1.054-1.704 1.262-2.621 1.754-1.779.956-3.62 1.787-5.721 1.821-1.552.025-2.902-.555-4.238-1.219-.477-.236-.936-.505-1.403-.76-.336-1.475-.507-2.975-.704-4.471 2.336.998 4.726 1.821 7.25 2.208 1.148.176 2.294.374 3.465.299a1 1 0 0 1 .458.031q1.24-.069 2.479-.041c.385.01.779.004 1.033.376z"/><path fill="#BAB1A5" d="M75.712 168.326c1.118-.644 2.461-.847 3.469-.274 1.029.584 1.92.136 2.858.257 3.053.4 6.067.909 8.878 2.234.64.302 1.242.681 1.862 1.024-6.427-.722-12.893-.952-19.335-1.474l.689-.648c.37-.296.66-.683 1.079-.923l-.008.006c.15-.114.283-.274.508-.204z"/><path fill="#BAB9BB" d="M102.287 232.908a1.2 1.2 0 0 1-.527-.52c.488.107.817-.299 1.245-.384.975-.973 2.265-1.415 3.468-1.976 3.324-1.547 6.624-3.143 9.928-4.731 3.923-1.883 7.882-3.692 11.761-5.666.295-.136.578-.365.927-.138.348.52.147.935-.239 1.331-.289.297-.675.479-.923.818-1.48.966-3.098 1.674-4.691 2.42-3.922 1.837-7.79 3.783-11.721 5.6-2.113.978-4.235 1.94-6.356 2.903-.546.249-1.123.41-1.703.551-.415.102-.832.151-1.169-.209z"/><path fill="#FD908C" d="M128.329 219.872c-2.469 1.396-5.085 2.492-7.627 3.736-4.206 2.059-8.442 4.052-12.671 6.063-1.668.793-3.349 1.556-5.024 2.333-.484-.895.113-1.583.441-2.324.43-.968.32-1.992.216-2.987-.058-.561-.126-1.116-.109-1.681.426 1.795.845 3.59.081 5.502.755-.11 1.365-.419 1.964-.703 6.234-2.942 12.458-5.904 18.684-8.864.213-.101.408-.241.611-.363a6.63 6.63 0 0 1 3.648-1.751c.564.476-.19.683-.215 1.038z"/><path fill="#B8B7BB" d="M98.523 229.877c-.449-.409-.468-.487-.51-2.093.239-.085.282.158.372.259.34.382.76.499 1.214.331.481-.178.347-.641.35-1.009.001-.493-.232-.987.519-1.266.323-.12.4-.76.295-1.218-.08-.349-.143-.689-.032-1.045.473.275.065.902.501 1.182.248.978.391 1.973.293 2.98-.094.956-.965 1.699-2.11 1.854-.293.04-.594.019-.892.025"/><path fill="#FD9D94" d="M38.067 167.267c1.344.002 2.645.366 3.99.436 2.44.127 4.87.419 7.307.604 2.856.217 5.714.393 8.57.593.142.011.279.094.418.143-3.492.499-6.923-.205-10.376-.505-1.893-.163-3.791-.262-5.689-.38-1.007-.063-2.005-.25-3.023-.191-.537.032-.818-.432-1.197-.701zm20.448 1.782c.731.002 1.471-.119 2.18.165-.727-.048-1.477.199-2.18-.165"/><path fill="#F5C3B6" d="M16.346 165.659c.54.054 1.106-.161 1.62.157-.54-.048-1.105.149-1.62-.157"/><path fill="#A4A29F" d="M160.397 170.994c.064.559.133 1.119.186 1.679.017.176.058.452-.032.52-.842.622-.241 1.304-.18 2.002.107 1.214-.182 2.423-.404 3.615-.222 1.196-.407 2.41-.703 3.579-.405 1.598-.83 3.2-1.325 4.775-.257.818-1.194 1.371-.97 2.393-1.416 1.008-.658 2.958-1.794 4.107-.262.265-.413.637-.765.846-.172.101-.395.277-.417.441-.162 1.241-1.169 2.076-1.511 3.224a.85.85 0 0 1-.377.482c-1.389.879-2.26 2.102-2.723 3.692-.222.763-.835 1.438-1.536 1.793-.649.329-.959.74-1.071 1.394-.096.124-.235.222-.375.188-1.04-.249-2.146-.285-3.071-.92-.282-.498.047-.85.316-1.195a83 83 0 0 0 7.153-10.849c.821-1.478 1.705-2.927 2.342-4.5a374 374 0 0 0 3.947-9.131c.52-1.248.794-2.592 1.485-3.773.516-1.133.706-2.374 1.172-3.522.136-.335.14-.788.651-.841z"/><path fill="#FEFCFA" d="m160.397 170.994-1.583 4.505c-.614.193-.557-.237-.529-.591.239-3.087.317-6.172-.115-9.251-.033-.236-.098-.487-.03-.71.374-1.192-.222-2.353-.09-3.535.034-.307-.167-.566-.289-.835a12.6 12.6 0 0 1-1.125-4.294c-.011-.149.006-.314-.069-.438-1.075-1.75-.937-4.017-2.402-5.6a.5.5 0 0 1-.093-.153c-1.193-3.194-3.459-5.725-5.3-8.518a3.5 3.5 0 0 0-.846-.914c-.886-.657-1.298-1.626-1.628-2.616-.169-.506-.142-1.049.655-1.01.844.357 1.777.608 1.961 1.719.012.075.097.179.168.198 1.633.427 1.851 2.078 2.747 3.14q.317.375.659.728c.654.68 1.54 1.218 1.369 2.384-.026.18.077.465.218.568 1.193.863 1.517 2.297 2.254 3.45.45.704.876 1.536.848 2.46-.011.366-.016.778.259 1.01.776.649.798 1.487.867 2.4.054.718.157 1.57 1.093 1.882.337.113.357.501.272.776-.433 1.4.003 2.633.67 3.83.228.412.316.828.14 1.283-.199.511-.038 1.033.124 1.486.431 1.199-.152 2.365-.017 3.545.035.31-.094.685.362.804l-.55 2.3z"/><path fill="#F78D8B" d="M143.29 204.642a23.6 23.6 0 0 0 3.485.895l6.078 1.657.023.312a.49.49 0 0 1-.397.154c-1.677-.365-3.348-.755-5.023-1.131a76 76 0 0 0-3.433-.839c-.399-.09-.826-.139-1.077-.532-.075-.297.036-.472.343-.516z"/><path fill="#A3A19F" d="M102.287 232.908c1.366.05 2.564-.529 3.745-1.077 7.282-3.375 14.54-6.8 21.728-10.372.941-.601 1.842-1.272 2.882-1.705.341-.142.687-.396 1.065-.074.039.413-.086.753-.417 1.027-2.076 1.721-4.125 3.474-6.285 5.095-2.082 1.563-3.954 3.396-6.186 4.767-.636.391-1.25.813-2.008.95-.171.031-.366.107-.481.227-1.534 1.594-3.695 1.467-5.591 2.086-1.368.448-2.723-.113-4.037.175-1.217.268-2.324-.302-3.503-.233-.5.028-.936-.234-.913-.866z"/><path fill="#B5B6BB" d="M131.707 219.68c-1.082.33-2.021.968-3.048 1.419-.296.13-.599.241-.899.361.148-.305.426-.467.697-.639.472-.3.621-.745.559-1.279.073-.335.344-.471.614-.598 5.695-2.66 11.34-5.425 17.028-8.103 1.778-.837 3.492-1.812 5.357-2.461.274-.096.528-.304.846-.156.154.898-.185 1.505-1.063 1.795l-2.509 1.247c-.076.151-.201.199-.362.179-1.404.642-2.819 1.26-4.21 1.931-4.342 2.091-8.675 4.202-13.01 6.304"/><path fill="#9D9D9D" d="m148.927 211.445.362-.179c.505.201.044.338-.047.472-.076.112-.225.247-.367.11-.127-.122.008-.269.052-.401zm-1.565 2.006c-.044.363-.17.523-.473.516-.033-.302.161-.401.473-.516"/><path fill="#B8AFA5" d="m37.173 138.104-.553-.354c-.204-.505-.79-.635-1.059-1.077.074-.348.348-.552.593-.759.63-.529.962-1.251 1.353-1.942.73-.314 1.524-.049 2.264-.259.378.046.754-.249 1.135-.012.396.398.164.765-.078 1.109-.822 1.168-1.94 2.075-2.864 3.155-.193.226-.478.367-.789.139z"/><path fill="#B2ACA3" d="M37.347 134.207c.154.139.328.276.167.514-.523.777-1.038 1.565-1.953 1.952l-1.802-1.607q1.047-.184 1.256-1.224c.124-.199.32-.241.534-.248.596.209 1.348-.026 1.798.613"/><path fill="#F5C3B6" d="M25.62 140.221c-.045.16-.182.19-.326.144-.14-.045-.273-.15-.195-.313.034-.07.182-.121.278-.121.154 0 .266.089.242.289z"/><path fill="#F7CDB6" d="M27.312 164.761c-.136.479-.297.943-.724 1.254.126-.484.265-.961.723-1.254"/><path fill="#FE908C" d="m46.842 100.145.027.402c-.004 2.225-.049 4.451.009 6.673.022.873.069 1.769.338 2.623.305.211.33.551.395.869.12.585.19 1.177.32 1.76.294 1.333.491 1.402 1.574.556 1.67-1.305 3.308-2.648 5.179-3.675 1.392-.764 2.885-1.307 4.3-2.006 2.408-1.188 4.923-2.023 7.57-2.332 1.7-.199 3.4-.553 5.15-.377 1.182.118 2.385.074 3.58-.078.89-.114 1.778.137 2.662.225 7.195.715 14.166 2.409 21.004 4.739 4.415 1.504 8.829 3.049 12.981 5.138 3.482 1.754 7.074 3.324 10.365 5.477a70 70 0 0 0 5.868 3.422c.876.459 1.629 1.115 2.397 1.712 2.259 1.758 4.708 3.279 6.754 5.307.53.527 1.177.914 1.763 1.376 1.766 1.39 3.33 2.979 4.82 4.649.419.471.878.89 1.418 1.22.287.591-.299.776-.526 1.129-.474.229-.795.652-1.214.954-.206.095-.403.213-.638.229-.632.023-1.075-.332-1.451-.769-2.641-3.067-5.792-5.571-8.902-8.129a70 70 0 0 0-6.292-4.587c-3.4-2.216-6.856-4.343-10.473-6.205-4.893-2.518-9.873-4.844-15.078-6.643-3.808-1.316-7.665-2.484-11.587-3.443-2.642-.646-5.29-1.276-7.977-1.652-2.508-.35-5.03-.708-7.571-.733-5.487-.053-10.754.952-15.681 3.445-1.898.96-3.666 2.134-5.341 3.434-.965.749-2.075 1.305-2.934 2.198-.208.217-.497.336-.822.225-.663-.497-.441-1.381-.868-1.981-.207-.501-.266-1.037-.37-1.562-.3-1.841-.683-3.669-.84-5.533-.218-2.576-.192-5.151-.032-7.728.007-.112.08-.22.123-.33z"/><path fill="#FDF9F3" d="m47.59 113.735.5 1.479c.29.955.6 1.901 1.124 2.761a7.2 7.2 0 0 0 .543 1.509c.047.176.047.355.04.536-.023.472-.347.741-.69.988-2.458 1.778-4.499 3.99-6.466 6.267-.534.618-1.161 1.111-1.742 1.661-1.47 1.396-2.548 3.149-4.146 4.426-.375.3-.681.696-1.243.469q-.247.007-.496.012c-.8-.316-1.626-.57-2.348-1.059.502-.866 1.114-1.6 1.846-2.325.838-.83 1.882-1.55 2.446-2.658.222-.436.562-.819.954-1.046 1.858-1.078 2.9-2.904 4.25-4.45.317-.364.42-.743.15-1.248.627.636 1.089.331 1.565-.098 1.348-1.214 2.414-2.706 3.842-3.84.375-.296.399-.655.285-1.116-.184-.744-.51-1.47-.416-2.266z"/><path fill="#FD8A88" d="M152.861 208.224c-.463.521-1.158.581-1.742.859a6493 6493 0 0 1-16.416 7.832c-1.885.895-3.791 1.751-5.687 2.627l-.688.33c-.184-.413.308-.602.316-.952.06-.597.59-.712.996-.903 3.89-1.822 7.735-3.741 11.631-5.548a9.5 9.5 0 0 1 1.805-.965c2.729-1.111 5.317-2.52 7.995-3.738.454-.206.89-.503 1.426-.263l.379.002c.292.246.076.481-.016.718z"/><path fill="#FEFEFE" d="M138.861 121.591c.741-1.329 1.821-2.415 2.645-3.696 1.763-2.74 3.255-5.565 3.5-8.879.46-6.196-1.147-11.793-4.985-16.715-.918-1.179-1.97-2.13-3.4-2.792-2.514-1.164-3.746-3.397-4.195-6.066-.342-2.034-.088-3.977 1.034-5.756 1.948-3.09 5.727-3.614 8.489-1.194 2.498 2.19 4.473 4.786 6.045 7.696 2.801 5.187 4.29 10.748 4.915 16.593.558 5.211.045 10.329-.803 15.459-.505 3.056-1.494 5.939-2.617 8.798-.086.219-.149.449-.221.673-.454 1.275-1.214 2.369-2.041 3.423-.371.35-.623.796-.938 1.191-.455.571-1.008.629-1.469.18-1.277-1.241-2.944-2.046-3.977-3.556a2.82 2.82 0 0 0-1.382-1.089c-.724-.268-1.223-.85-1.73-1.388-.53-.563-.166-1.112.185-1.599.31-.431.691-.81.946-1.283z"/><path fill="#FE8B89" d="M145.336 137.927c-.362.117-.611.083-.918-.253-1.359-1.488-2.779-2.922-4.171-4.38-.599-.627-1.359-1.052-2.022-1.601-2.536-2.099-5.097-4.175-7.756-6.114a44.4 44.4 0 0 0-5.402-3.386 52 52 0 0 1-4.489-2.676c-1.43-.954-3.003-1.586-4.516-2.351-2.602-1.319-5.127-2.808-7.87-3.83-3.29-1.226-6.502-2.66-9.881-3.651-2.116-.62-4.202-1.345-6.32-1.956a54 54 0 0 0-4.684-1.151c-2.476-.481-4.96-.933-7.46-1.262-1.295-.171-2.602-.265-3.902-.439-.932-.125-1.884.202-2.846.148-.92-.051-1.92-.292-2.744-.114-1.584.343-3.198.175-4.769.559-1.183.289-2.337.693-3.554.87-1.02.148-1.769.933-2.735 1.282-2.53.913-4.937 2.097-7.091 3.74-1.153.878-2.33 1.725-3.47 2.616-.414.323-.642.392-.809-.202-.36-1.29-.671-2.586-.71-3.932 1.467-1.201 3.209-2.008 4.685-3.177.96-.76 2.059-1.286 3.022-2.038.648-.507 1.498-.957 2.24-1.131 2.126-.497 4.027-1.621 6.17-2.014a2.66 2.66 0 0 0 1.14-.485c.139-.105.326-.233.48-.219 1.976.185 3.916-.593 5.895-.213.245.047.476.069.67-.123 1.068-1.056 2.284-.774 3.439-.274.868.376 1.773.536 2.62.33 1.271-.307 2.413.166 3.614.266 1.187.099 2.27.558 3.383.83 1.39.34 2.851.753 4.332.721.626-.015 1.179.165 1.722.405.612.27 1.22.458 1.903.334.405-.074.75.152 1.098.323.725.354 1.585.381 2.27.655 1.117.448 2.345.534 3.396 1.127.284.159.54.456.885.258.484-.276.858-.108 1.218.204.624.543 1.329.877 2.169.923.517.027.939.272 1.372.564.75.507 1.604.792 2.532.763.4-.012.788.038 1.096.305 1.551 1.339 3.341 2.064 5.363 2.449.816.156 1.667.697 2.398 1.198.58.399 1.129.75 1.814.892.806.168 1.483.598 2.159 1.048 1.325.88 2.63 1.804 4.024 2.561 1.182.642 2.229 1.541 3.442 2.047 1.534.638 2.944 1.552 4.131 2.548 1.152.965 2.603 1.521 3.574 2.732.616.769 1.581.513 1.945-.396.092-.23.177-.443.438-.521-.288 1.377-.47 2.747-.269 4.167.153 1.084.621 2.025 1.074 2.986.64 1.462 1.876 2.035 3.359 2.219.496.062 1.006-.067 1.497.098 1.419 1.151 2.511 2.656 4.026 3.703-.007.566-.622.638-.843 1.03-.391.236-.658.611-1.005.899a.5.5 0 0 1-.355.087z"/><path fill="#FEFCFB" d="M138.363 130.004c-1.408-2.335-1.668-4.752-.511-7.266l1.009-1.146c-.048.611-.592.931-.841 1.428-.295.586-.507 1.065.251 1.562.603.396 1.095.908 1.811 1.206.913.382 1.268 1.463 2.019 2.08 1.04.852 2.118 1.658 3.12 2.56.256.231.498.108.759-.148.419-.412.612-1.033 1.198-1.282-.407 1.157-.95 2.207-2.159 2.736-3.089 1.406-5.522.098-6.655-1.73z"/><path fill="#FE8988" d="M144.968 131.437c.999-.577 1.692-1.429 2.209-2.44.875-.982 1.404-2.183 2.09-3.284-.01.963-.697 1.61-1.131 2.371-.439.77-1.304 1.502-1.311 2.256-.005.725 1.064 1.258 1.669 1.864.453.454.665.967.627 1.587.363.077.467-.291.732-.324l-.399.676c-.566.694-1.093 1.429-1.94 1.823-.695-.15-1.217-.581-1.703-1.059-.807-.795-1.605-1.6-2.266-2.525.35-.501 1.047-.481 1.422-.945z"/><path fill="#FE8988" d="M150.92 132.198c-.182.575-.625.933-1.075 1.285.096-.646.628-.93 1.075-1.285"/><path fill="#FEFCF9" d="m147.515 135.966 1.939-1.823c-.139.732-.82 1.034-1.246 1.539-.395.47-.835.902-1.255 1.351-.518.289-.539.591-.277 1.158.469 1.02 1.107 1.819 1.911 2.615.997.985 1.643 2.313 2.528 3.423.926 1.162 1.339 2.662 2.492 3.664.085.075.173.193.186.299.165 1.445 1.252 2.446 1.784 3.713.196.469.378.939.348 1.461-.007.117-.036.273.023.351 1.437 1.887.914 4.377 1.977 6.372.388.729.361 1.488.461 2.275.486 3.845.357 7.699.429 11.553.006.336.044.64-.179.925-.218.28-.283.546.177.656-.578 1.213-.825 2.556-1.475 3.741-.709-.036-.753-.632-.642-1.034.387-1.407.124-2.834.258-4.245.088-.939.308-1.885-.023-2.828a1.27 1.27 0 0 1-.017-.709c.503-1.994-.09-3.948-.211-5.918-.173-2.803-.893-5.515-1.574-8.216-.663-2.629-1.741-5.124-3.288-7.382-.376-.549-.593-1.166-.879-1.753-.861-1.763-2.243-3.136-3.421-4.66-.691-.891-1.328-1.825-2.128-2.64-.674-.686-.583-1.042.241-2.059.231-.382.565-.669.91-.944l.95-.888z"/><path fill="#FE8686" d="M56.304 188.002c2.246.458 4.205.966 6.063 1.798 3.088 1.383 5.596 3.382 7.132 6.479 1.788 3.604.925 7.09-2.356 9.438-2.336 1.673-5.007 2.429-7.797 2.637-5.392.4-10.448-.754-15.027-3.72-1.415-.917-2.647-2.033-3.66-3.384-.24-.323-.427-.65-.878-.179-3.291 3.422-6.571 6.848-8.672 11.188a9.8 9.8 0 0 0-.82 2.448c-.351 1.839.54 3.033 2.41 3.177 1.754.135 3.448-.168 5.119-.674a38 38 0 0 0 5.102-1.943c.428-.2.9-.411 1.17.123.29.576-.15.858-.632 1.059-2.843 1.181-5.71 2.283-8.802 2.64-1.049.122-2.096.092-3.11-.201-2.06-.596-2.948-2.411-2.361-4.891.626-2.643 2.159-4.822 3.728-6.967 1.783-2.436 3.823-4.654 6.01-6.732.5-.474.609-.868.352-1.551-1.171-3.106-.102-6.323 2.637-8.281 2.696-1.927 5.758-2.883 9.004-2.753 2.589.104 4.689-.612 6.82-1.994 4.014-2.602 8.29-4.746 12.869-6.22 1.909-.615 3.858-1.066 5.888-.968 3.015.145 4.485 2.083 3.818 5.014-.472 2.074-1.556 3.853-2.696 5.608-1.42 2.183-3.145 4.119-4.885 6.042-.297.328-.662.777-1.118.357-.462-.425-.124-.853.222-1.228 2.192-2.366 4.258-4.829 5.873-7.638.673-1.169 1.21-2.385 1.485-3.717.365-1.768-.59-3.045-2.416-3.186-1.85-.141-3.628.209-5.378.757-4.767 1.491-9.151 3.78-13.387 6.38-.503.309-.997.631-1.707 1.082"/><path fill="#010101" d="M90.553 220.171c.812.068 1.518.049 2.212.175.403.073.53.198.58.597.127 1.028.33 2.046.48 3.071.058.38.13.815-.476.84-.497.02-1.001.027-1.049-.648-.05-.682-.062-1.365-.091-2.048-.02-.474-.174-.727-.747-.722-.83.008-1.661-.11-2.49-.19-.286-.027-.624.009-.77-.331-.136-.321.145-.487.308-.682.837-1.006 1.715-1.979 2.513-3.014.443-.575 1.01-.5 1.527-.378.5.118.233.494.035.743-.573.721-1.163 1.429-1.742 2.145-.086.106-.15.229-.29.444zm4.905-3.035c1.105-.356 1.243-.284 1.38.786.078.617.11 1.242.187 1.86.033.27-.056.493-.25.631-.969.693-1.085 1.612-.772 2.67.083.283.119.58.164.873.159 1.048-.113 1.29-1.164 1.073-.272-.055-.4-.165-.439-.456-.15-1.146-.324-2.29-.495-3.433-.034-.225-.014-.423.208-.536 1.13-.571 1.376-1.525 1.176-2.675-.097-.266-.128-.53.005-.795z"/><path fill="#060606" d="m95.458 217.136-.005.793-.277-.67c-.303.461-.558.873-.837 1.269-.26.368-.538.4-.67-.083-.114-.422-.148-.867-.212-1.303-.042-.297.14-.344.378-.317.549.062 1.128-.031 1.623.311"/><path fill="#030404" d="M97.428 225.127c-.34-.122-1.01.188-.86-.529.103-.498.117-1.152.74-1.39.209-.08.984 1.264.914 1.669-.094.54-.54.106-.793.25z"/><path fill="#FDF1E2" d="M28.195 163.683a16.4 16.4 0 0 1 2.155-3.218c.165-.251.383-.461.537-.72l-.002.002c.285-.686.802-.801 1.367-.425 1.437.955 3.123 1.183 4.732 1.473 1.263.229 2.564.467 3.872.483.21.003.42 0 .624.052 1.339.343 2.722.261 4.077.416 1.495.171 3.018.428 4.486.357 1.342-.065 2.618.658 3.95.167a.77.77 0 0 1 .691.106c.689.492 1.47.412 2.244.413 1.571.002 3.142.171 4.698.224 1.327.045 2.638.372 3.98.238.763-.076 1.502.285 2.285.323 1.307.066 2.63.05 3.915.192 1.406.155 2.858-.032 4.224.456.335.119.642-.017.96-.028.918-.031 1.94-.324 2.526.763a.77.77 0 0 1-.122.544c-.171.218-.395.37-.64.496a15.2 15.2 0 0 0-3.043 2.327l-.508.204c.035-.306.636-.451.31-.816-.31-.349-.732-.649-1.257-.515-1.439.364-2.826-.029-4.232-.231-.969-.139-1.953-.161-2.93-.242-1.344-.11-2.69-.208-4.03-.347-.524-.055-1.05.287-1.495.137-1.07-.361-2.19-.1-3.281-.461-.882-.292-1.922-.09-2.893-.208-1.374-.168-2.758-.262-4.141-.335-.527-.028-1.075.185-1.588.113-.692-.097-1.4-.131-2.068-.24-1.593-.262-3.2-.262-4.783-.476-2.487-.337-4.99-.423-7.482-.654-1.05-.097-1.989-.576-3.012-.755-.904-.158-1.8-.339-2.616-.815-.323-.189-.643-.001-.852.293-.19.267-.34.564-.66.707z"/><path fill="#FDF1E2" d="M75.211 168.522c-.286.393-.608.745-1.079.923.253-.431.532-.832 1.08-.923"/><path fill="#FDF2E4" d="M100.132 186.574c.839-.541 1.672-1.097 2.691-1.254.551.694.546 1.563.648 2.361.208 1.625.578 3.221.734 4.853.342 3.587 1.102 7.113 1.72 10.654.476 2.721 1.364 5.366 3.366 7.462.992 1.037 2.189 1.088 3.468.791.682-.158 1.354-.573 2.032.004.257.502.107 1.035.116 1.555-.193.563-.178 1.133-.053 1.708-.076.511.188 1.151-.536 1.417.009-.623.036-1.057-.857-.585-1.158.613-2.474 1.008-3.788.697-1.313-.31-2.36-1.1-3.228-2.191-1.745-2.195-2.439-4.733-2.888-7.432a39 39 0 0 0-.841-3.801c-.526-1.939-.676-3.928-.884-5.877-.286-2.68-.914-5.285-1.285-7.94-.114-.81.136-1.687-.417-2.422z"/><path fill="#FD9D93" d="m113.582 221.117-.198-.188c-.065-.698.267-1.313.429-1.961.177-.712.346-1.419.341-2.157.202-.294.414-.574.729-.769 1.872-1.157 3.708-2.368 5.4-3.781.295-.247.613-.478.967-.639.634-.288.973-.1 1.023.586.032.443.008.89.106 1.328-.01.59.059 1.185-.084 1.767-.016.24-.046.476-.258.636-1.264.431-2.152 1.437-3.244 2.133-1.698 1.083-3.282 2.356-5.211 3.044z"/><path fill="#FDA598" d="M122.034 213.442c-.005-.357 0-.714-.022-1.07-.013-.222.104-.525-.184-.628-.243-.089-.443.113-.629.259-2.251 1.745-4.504 3.487-7.045 4.808q.081-.344.165-.688c.259-.451.145-.948.179-1.426.161-.346.03-.714.088-1.068-.062-1.494.856-2.186 2.069-2.826 1.441-.761 2.616-1.954 3.992-2.841.392-.253.761-.623 1.287-.287.138.155.169.342.169.54-.001.434-.006.869.155 1.285.036.589.006 1.186.22 1.755.011.208-.013.417.034.623.003.57.287 1.228-.477 1.566z"/><path fill="#FDF0DF" d="M114.665 211.444a3.6 3.6 0 0 0-1.407.193c-2.072.742-3.328.306-4.752-1.376-1.067-1.261-1.576-2.722-2.144-4.228-1.263-3.343-1.318-6.9-2.064-10.33-.454-2.093-.636-4.244-.935-6.37-.187-1.338-.543-2.651-.54-4.014l1.442-.692c.078.044.206.078.221.142.27 1.183 1.125 2.191.941 3.521-.177 1.291-.212 2.566.402 3.827.436.896.609 1.914.43 2.957-.121.703.145 1.44.105 2.104-.097 1.664.77 3.139.696 4.805-.041.954.574 1.905.885 2.861.299.918.858 1.745 1.488 2.363.835.82 2.165.961 3.172 1.624.154.102.374-.136.565-.216 1.044-.435 1.373-.286 1.803.813.013.69.284 1.419-.31 2.016z"/><path fill="#C5B9A8" d="m78.756 165.997.397-.499c.316-.295.57-.651.911-.922q.27-.246.597-.407c.35-.078.6-.385.965-.432q.292-.018.563-.144c.39-.208.768-.058 1.117.085 3.739 1.531 7.582 2.729 11.512 3.658.876.182 1.756.342 2.612.605 2.167 2.027 4.331 4.058 5.495 6.878.23.558.604 1.137.078 1.74l-.541-.005c-.398-.215-.862.058-1.257-.167-.478-.055-.983.127-1.43-.173-.95-2.055-2.046-3.955-3.912-5.401-1.722-1.333-3.626-2.302-5.584-3.129-1.426-.602-3.03-.835-4.577-1.095-1.805-.303-3.644-.396-5.446-.748-.504-.098-1.006.049-1.501.156"/><path fill="#FDF0DF" d="M114.639 209.297c-.318-.692-.77-.832-1.399-.313-.571.471-1.042.395-1.461-.11-.459-.555-1.065-.73-1.723-.822-.237-.033-.581.012-.654-.201-.289-.846-1.09-1.306-1.457-2.151-.397-.916-.57-1.908-1.052-2.784-.143-.259-.376-.55-.277-.828.349-.965-.074-1.79-.381-2.649-.17-.477-.277-.974-.073-1.481.081-.2.098-.429-.02-.606-.493-.737-.358-1.554-.242-2.328.189-1.267-.195-2.367-.696-3.492-.475-1.065-.256-2.215-.128-3.324.072-.613.156-1.157-.362-1.639-.569-.531-.053-1.35-.451-1.942l.712-.198.346.376c.587.047.834.445.981.946.174 1.071.542 2.132.176 3.235-.026.078.014.178.05.259.94 2.111 1.039 4.366 1.141 6.62.015.302.096.584.184.868a37 37 0 0 1 1.245 5.564c.049.337.172.621.358.898.299.444.637.871.859 1.358.645 1.417 1.781 2.016 3.286 2.008.45-.003.828.086 1.064.506.106.236.229.464.29.719.063.539.204 1.094-.317 1.512z"/><path fill="#CBBCAA" d="M103.003 176.56c.051-.581-.098-1.127-.374-1.624-.881-1.595-1.626-3.278-3.117-4.466-.813-.647-1.438-1.49-2.07-2.312.271-.323.599-.154.914-.108 1.968.284 3.925.66 5.918.735.528.02.795.36 1.068.706.911 1.154 1.561 2.459 2.12 3.806.33.793.74 1.563.908 2.415.181.916.008 1.124-.911 1.114-.35-.003-.714.095-1.052-.08l-3.038-.007-.366-.18zm-1.798-.173c.42.045.87-.132 1.257.167-.422-.038-.871.129-1.257-.167"/><path fill="#FDF8F1" d="m121.852 215.941.189-.561c1.472-1.7 3.31-2.981 5.056-4.365 1.893-1.502 3.507-3.316 5.419-4.792 1.323-1.022 2.42-2.298 3.789-3.264.221-.156.413-.34.59-.545 2.321-2.679 4.797-5.227 6.921-8.075.961-1.29 1.833-2.644 2.441-4.142.437-1.076 1.034-2.07 1.509-3.13.982-2.194 1.705-4.485 2.102-6.804.31-1.817.865-3.604.837-5.526-.02-1.423.227-2.891.212-4.345-.02-1.754-.109-3.504-.458-5.231-.04-.204-.079-.414-.057-.621.198-1.899-.459-3.628-.997-5.397-.536-1.766-1.035-3.551-1.84-5.209-.945-1.946-1.89-3.899-3.273-5.606-1.312-1.617-2.433-3.38-3.907-4.877-.627-.638-.539-.935.179-1.85.093-.15.199-.29.328-.411.269-.213.567-.387.817-.628.315-.184.627-.397 1.011-.159.228.312.424.647.694.927 2.212 2.292 3.839 5.03 5.491 7.696 1.389 2.241 2.744 4.561 3.403 7.235.468 1.899 1.048 3.781 1.418 5.706.513 2.659.929 5.323.653 8.062-.113 1.11.186 2.252.098 3.383-.18 2.341-.525 4.66-.91 6.975-.543 3.26-1.942 6.218-3.114 9.274-.839 2.187-2.125 4.052-3.313 5.991-.848 1.386-1.949 2.631-2.983 3.902-1.787 2.198-3.87 4.123-5.827 6.164-2.688 2.804-5.873 5.038-8.673 7.712-2.44 2.33-5.185 4.294-7.802 6.412a2.5 2.5 0 0 0-.37.388c-.376.209-.795.259-1.212.317-.184-.276-.024-.512.102-.736.54-.96.914-1.969 1-3.079.024-.32.132-.639.474-.795z"/><path fill="#FDFAF5" d="M121.489 220.232c-.034-.36.117-.618.401-.841 3.634-2.869 7.223-5.787 10.615-8.949 1.356-1.265 2.93-2.337 4.288-3.594a51 51 0 0 0 3.296-3.352c.608-.679 1.194-1.38 1.922-1.957.865-.687 1.407-1.678 2.137-2.5.883-.995 1.795-2.04 2.437-3.17 1.092-1.919 2.77-3.509 3.268-5.787.199-.911.702-1.77 1.154-2.605.931-1.719 1.433-3.603 1.904-5.452.336-1.321.719-2.688.698-4.111-.023-1.63.665-3.193.545-4.849-.059-.826.054-1.663-.141-2.48-.064-.269-.033-.524.011-.793.291-1.813.068-3.623-.197-5.408-.288-1.932-.751-3.839-1.135-5.757-.018-.088.003-.187-.033-.266-.919-2.045-1.04-4.403-2.484-6.248-.285-.365-.43-.845-.607-1.286-.662-1.653-1.978-2.89-2.818-4.427-1.091-1.996-2.604-3.667-4.097-5.354-.199-.225-.081-.446-.026-.672-.03-.292.218-.354.396-.473l.486-.225.113.089c.081.128.049.315.166.408 1.176.944 1.817 2.306 2.718 3.464.335.432.984.57 1.186 1.064.523 1.287 1.538 2.232 2.233 3.389.935 1.552 1.488 3.308 2.504 4.823.033.049.071.103.079.159.34 2.228 1.627 4.152 1.967 6.416.184 1.229.488 2.477.723 3.72.102.538.075 1.066.09 1.599.017.563-.051 1.137.368 1.613.12.138.185.355.114.506-.461.982-.133 1.987-.111 2.979.033 1.469-.179 2.915.046 4.419.137.918-.089 2.112-.542 3.096a2.3 2.3 0 0 0-.226 1.211c.144 1.403-.369 2.671-.702 3.997-.322 1.279-1.067 2.473-.918 3.861-.131 1.038-.551 1.999-.935 2.948-.926 2.298-2.099 4.526-3.549 6.492-1.347 1.827-2.586 3.758-4.17 5.44-1.55 1.645-2.971 3.412-4.608 4.982-.667.641-1.379 1.218-2.106 1.791-.973.768-1.729 1.792-2.756 2.521-1.365.969-2.448 2.27-3.726 3.315-2.16 1.766-4.199 3.696-6.572 5.196-1.067.573-2.229.844-3.409 1.058z"/><path fill="#FDFAF6" d="M124.898 219.175c.182-.486.661-.662 1.009-.978 1.759-1.6 3.622-3.075 5.508-4.52.626-.479.952-1.187 1.56-1.689.799-.659 1.666-1.229 2.429-1.948 1.89-1.781 3.909-3.421 5.774-5.237 1.753-1.706 3.322-3.593 4.807-5.489 2.421-3.089 4.618-6.39 6.156-10.048.366-.869.612-1.789.911-2.686.477-1.926.999-3.841 1.636-5.719.249-.736.026-1.469.148-2.196.054-.318.039-.644.134-.966.449-1.498.801-2.995.443-4.59-.223-.994.386-1.966.252-2.992-.073-.553.053-1.13-.215-1.66-.027-.053-.052-.12-.038-.173.253-.956-.127-1.885-.142-2.799-.043-2.554-.601-4.984-1.225-7.423-.235-.916-.395-1.856-.962-2.658-.228-.323-.262-.737-.277-1.115a2.5 2.5 0 0 0-.418-1.25c-1.032-1.61-1.672-3.415-2.596-5.077-.191-.342-.371-.701-.661-.945-.5-.42-.806-.942-1.038-1.531-.235-.599-.66-1.032-1.175-1.424-.682-.518-1.21-1.181-1.433-2.038.954-.236 1.562.425 2.02 1.002 1.309 1.647 2.719 3.225 3.613 5.18.464 1.017 1.228 1.891 1.367 3.063.037.315.274.59.501.834.612.658 1.036 1.385.854 2.334-.028.147-.022.311.061.434.685 1.03.643 2.328 1.295 3.384.699 1.133.565 2.488.659 3.736.147 1.927.426 3.829.678 5.737.06.453-.055.889-.06 1.333-.01 1.038-.126 2.084.21 3.101.064.197.114.413.082.616-.341 2.189-.328 4.413-.788 6.599-.223 1.067-.477 2.123-.719 3.184-.18.791-.308 1.576-.832 2.23a.76.76 0 0 0-.148.506c.017.776-.295 1.438-.677 2.092-.165.284-.467.584-.205.977-.776 2.007-1.9 3.835-2.964 5.691-2.048 3.571-4.326 6.989-6.91 10.203-.092.114-.156.252-.234.38q-.157.19-.313.384c-.139 1.002-.956 1.562-1.555 2.232-3.006 3.37-6.333 6.376-10.185 8.789-1.288.806-2.494 1.744-3.847 2.447-.38.198-.756.521-1.246.289l-1.247.393z"/><path fill="#B8B8BB" d="M126.145 218.781c4.546-2.431 8.737-5.362 12.421-8.966 1.55-1.517 2.946-3.189 4.412-4.791 1.484.526 3.078.642 4.548 1.214-.466.957-1.319 1.59-2.031 2.327-1.213 1.257-2.38 2.571-3.794 3.621-.178.132-.298.285-.302.511-1.145.569-2.283 1.151-3.434 1.704-2.845 1.367-5.697 2.721-8.545 4.085-.267.127-.517.288-.776.433l-3.749 1.664c.146-.788 1.055-1.05 1.249-1.804z"/><path fill="#FD9790" d="M121.852 215.941c-.18 1.654-.487 3.265-1.577 4.608a1.47 1.47 0 0 0-.589.551c-.396.24-.867-.053-1.264.178l-1.066.017c-.948 0-1.896.006-2.843-.004-.317-.004-.659.079-.931-.175.904-.985 2.198-1.379 3.267-2.125 1.481-1.031 2.998-2.007 4.385-3.164.316-.264.485-.336.617.114z"/><path fill="#C3BEBA" d="M118.422 221.278c.391-.279.843-.118 1.264-.178-.385.318-.841.131-1.264.178"/><path fill="#FEFAF7" d="M153.398 188.369c-.551-.174-.279-.527-.125-.774.468-.746.894-1.482.58-2.416-.038-.113.031-.327.126-.41 1.197-1.071.643-2.816 1.559-3.99-.366-1.236.357-2.348.458-3.543.11-1.293-.025-2.637.416-3.909a1.45 1.45 0 0 0-.003-.879c-.456-1.37-.349-2.747-.174-4.143.082-.655-.037-1.391-.205-1.964-.444-1.509-.262-3.042-.496-4.54-.248-1.595-.136-3.321-1.329-4.657.325-1.21-1.131-2.054-.653-3.34.181-.49-.329-.927-.677-1.285-.541-.556-.935-1.155-.903-1.966.004-.116.007-.269-.059-.346-.989-1.159-1.308-2.709-2.313-3.871-.694-.804-1.306-1.691-1.903-2.565-.575-.841-1.392-1.231-2.177-1.729-.029.007-.079.027-.084.02-.513-.803-1.366-1.361-1.689-2.303.149-.451.582-.653.865-.986.179-.335.601-.463.725-.846l.181-.17c.096-.115.214-.117.342-.062-.833 1.279-.79 1.239.387 2.513.7.758 1.32 1.614 1.903 2.46.758 1.1 1.813 1.956 2.453 3.131 1.287 2.361 2.716 4.663 3.781 7.119.937 2.162 1.433 4.503 1.918 6.83.379 1.82.867 3.671.899 5.482.03 1.715.818 3.459.045 5.185-.078.174-.092.441-.015.61.507 1.114.117 2.219 0 3.324-.038.359-.073.71.015 1.063a3.4 3.4 0 0 1-.103 2.01c-.208.594-.4 1.273.198 1.82-.965 2.745-2.173 5.386-3.431 8.005-.178.371-.342.748-.511 1.124z"/><path fill="#B5B6BB" d="M141.399 212.699c-.396-.481.059-.705.324-.925 1.515-1.247 2.814-2.707 4.193-4.091.502-.503.832-1.236 1.61-1.443 1.681.332 3.383.576 4.972 1.263l-5.188 2.425q-2.957 1.384-5.911 2.77z"/><path fill="#FDEFDF" d="m80.763 164.393-.517.374c-.302.127-.543.419-.92.349-.326-.532-1.651-.867-2.35-.573-.192.08-.414.292-.574.182-1.2-.825-2.635-.045-3.89-.616-.733-.333-1.555.139-2.378-.021-1.009-.197-2.069-.167-3.107-.157-.443.003-.747-.494-1.055-.376-1.337.51-2.607-.614-3.929-.087a.93.93 0 0 1-.862-.106c-.261-.178-.547-.215-.852-.214-1.386.004-2.771-.005-4.157.005-.576.004-1.126.004-1.564-.477-.27-.298-.61-.177-.899.012-.451.296-.886.295-1.333-.002-.123-.081-.283-.196-.405-.174-1.271.227-2.535-.429-3.806-.027-.109.035-.256.078-.344.034-1.61-.807-3.386-.262-5.05-.615-1.38-.294-2.806-.485-4.186-.514s-2.582-.7-3.961-.659c-.91.027-1.688-.701-2.504-1.118-.524-.269-.855-.206-1.235.136l.008-.347c.517-.949.935-1.968 1.9-2.592.169-.094.345-.164.54-.181.486-.141.889.004 1.21.372.898 1.034 2.014 1.515 3.38 1.791 1.305.264 2.611.631 3.932.783 1.799.21 3.58.569 5.413.555 1.419-.011 2.84.199 4.252.419.91.141 1.841.113 2.759.169.98.059 1.95.226 2.923.256 2.98.09 5.946.265 8.903.683 1.05.149 2.142.313 3.208.217 1.846-.167 3.597.542 5.42.482 1.403-.045 2.79.201 4.191.177.666-.011 1.305.18 1.921.393.855.296.902.7.205 1.258-.094.074-.184.15-.287.211z"/><path fill="#C5B9A8" d="M42.186 142.056c-.531-.046-.706-.683-1.233-.737-.482-.671-1.253-1.017-1.811-1.602 1.335-1.227 2.413-2.689 3.682-3.983 1.099-1.12 2.107-2.338 3.225-3.449.322-.32.33-.659.151-1.055-.181-.402-.491-.753-.512-1.224.625-.856.728.039 1.023.302.577 1.348 1.472 2.522 2.126 3.83.046.126.057.258.053.392-.007.216-.071.425-.23.562-.883.763-1.477 1.776-2.265 2.604-1.242 1.306-2.3 2.771-3.625 4.001-.175.162-.322.349-.585.361z"/><path fill="#BEB4A6" d="M45.766 130.052c.557.377.654 1.036.962 1.564.177.302-.048.501-.243.685-1.843 1.749-3.466 3.704-5.202 5.552-.445.474-.861.973-1.291 1.462-.226.255-.489.432-.85.401-.623-.578-1.492-.856-1.97-1.613.66-.091.818-.724 1.202-1.111.749-.759 1.542-1.474 2.182-2.338.2-.27.413-.503.377-.862-.03-.393.3-.483.55-.601 1.338-.628 2.439-1.555 3.422-2.64.225-.249.415-.606.86-.5z"/><path fill="#FDEFDF" d="M30.887 159.745c-.022.357-.248.561-.537.72.036-.346.256-.556.537-.72"/><path fill="#FEF6ED" d="M35.51 133.83c.146-.03.356-.011.424-.101.909-1.181 2.29-1.899 3.082-3.202.652-1.073 1.702-1.779 2.6-2.628.896-.849 1.611-1.889 2.5-2.751 1.548-1.5 2.909-3.207 4.768-4.373.294-.184.656-.332.678-.768.468 0 .564.387.735.697.047.304.21.58.228.891.571 1.275.006 2.104-1.007 2.871-1.142.865-2.043 2.003-3.094 2.975-1.863 1.721-3.515 3.643-5.282 5.456-.397.407-.824.773-1.28 1.111-.822.277-1.678.134-2.517.198-.618-.1-1.252-.117-1.836-.377z"/><path fill="#FDF3E7" d="M39.864 134.01c.123-.308.3-.574.527-.82 2.725-2.954 5.606-5.757 8.446-8.596.105-.105.205-.226.33-.302 1.026-.619 1.666-1.39 1.105-2.663.465-.04.564.367.727.644.34.575.634 1.179.915 1.785.157.364.373.707.435 1.109.169.61-.054 1.084-.488 1.514-1.305 1.295-2.592 2.609-3.912 3.889-.73.707-.896.675-1.479-.149q-.435-.588-.706-.369c-1.306 1.638-2.857 2.963-4.832 3.741l-1.07.217z"/><path fill="#FE948E" d="m143.025 139.902-.396.473-.824.436c-.562.241-.817-.215-1.119-.515-2.338-2.3-4.657-4.614-7.204-6.696-5.241-4.284-10.894-7.932-16.806-11.221-4.29-2.387-8.777-4.339-13.307-6.184-3.87-1.575-7.88-2.783-11.92-3.879-3.664-.995-7.36-1.833-11.113-2.406-.591-.089-1.178-.206-1.78-.141-1.205-.362-2.37-.858-3.624-1.054-.66-.28-1.326-.274-1.992-.018-1.23.208-2.393.655-3.587.994-.271.013-.531-.11-.806-.065-.352-.09-.686.015-1.019.109a1.5 1.5 0 0 1-.39.046c-.311-.056-.588.071-.87.17-2.493.614-4.947 1.332-7.284 2.431-2.911 1.37-5.525 3.177-8.033 5.164-.48.382-.892.898-1.566.985-.222-.03-.283-.184-.29-.378-.121-.317-.311-.616-.263-.978.113-.035.256-.038.334-.111 1.785-1.675 3.856-2.971 5.865-4.341 2.453-1.672 5.158-2.8 8.008-3.672 3.82-1.168 7.712-1.557 11.656-1.327 3.32.194 6.628.564 9.908 1.238 2.685.553 5.354 1.184 7.98 1.915a123 123 0 0 1 12.78 4.324c4.191 1.679 8.192 3.73 12.181 5.82 4.017 2.104 7.84 4.518 11.542 7.122 2.407 1.693 4.641 3.608 6.915 5.474 1.359 1.116 2.518 2.431 3.911 3.503.694.535 1.219 1.298 1.786 1.984.357.432.743.765 1.327.796z"/><path fill="#FD958F" d="m48.832 117.176.356.895q-.091.175-.2.009c-.408-.922-.76-1.861-.896-2.867.422.588.519 1.298.74 1.962z"/><path fill="#FDFAF5" d="m144.61 138.773-.706.944c-.115.103-.233.112-.353.008l-.041-.047c.315-.364.652-.701 1.1-.905"/><path fill="#FD9B92" d="m50.044 120.763-.482-.755-.037-.49.093-.095c.41-.126.717-.403 1.043-.667 3.257-2.639 6.706-4.982 10.637-6.509 1.909-.742 3.874-1.365 5.964-1.408.268.408-.071.641-.269.911-.21.286-.533.464-.743.753-.55.665-.815 1.553-1.611 2.023-1.76.376-3.36 1.105-4.975 1.902-2.887 1.425-5.45 3.269-7.901 5.312-.714.596-.975.492-1.412-.357-.106-.205-.111-.461-.307-.62"/><path fill="#FD9B92" d="m48.988 118.081.2-.008.179.357c.389.298.51.642.192 1.067l-.034.022c-.308-.432-.461-.921-.537-1.438"/><path fill="#FE908C" d="M144.968 131.437c-.287.596-.954.622-1.423.945-1.25.025-2.521.117-3.62-.651-.648-.453-1.348-.877-1.562-1.727q.283.28.562.563c1.774 1.822 3.453 2.064 6.043.87m.892 6.257-.343.063c.275-.387.541-.784 1.047-.903z"/><path fill="#FDEFDD" d="M79.325 165.116c.302-.129.572-.343.921-.349q-.449.51-1.093.731z"/><path fill="#FDAB9B" d="m114.639 209.297.017-1.591c-.178-.475-.151-.892.398-1.084 1.924-.671 3.414-2.028 5.053-3.149.465-.318.906-.664 1.362-.001.099.205.149.43.248.637.117.342.078.71.185 1.054.031.176.084.35.069.532-.064.32.057.619.114.924q.024.142.053.282c.011.305-.022.594-.305.787-1.248.52-2.245 1.426-3.304 2.22-.884.663-1.757 1.333-2.76 1.796-.661.306-1.068.699-.941 1.483.019.124-.098.269-.152.404-.15-.168-.118-.347-.03-.529l.019-1.618z"/><path fill="#FDF0DF" d="m114.646 213.062.03.529c-.069.367.074.768-.178 1.105.041-.546-.163-1.112.148-1.634"/><path fill="#FDF5EB" d="M140.849 141.663c-.778 1.053-.768 1.043.23 2.047 1.153 1.16 2.025 2.541 3.012 3.833.739.966 1.574 1.877 2.085 2.972.745 1.591 1.705 3.058 2.317 4.74.548 1.501.935 3.049 1.481 4.549.507 1.39.886 2.844.796 4.414-.077 1.336.332 2.685.38 4.045.073 2.039.388 4.084-.196 6.102-.176.61.13 1.193.02 1.842-.547 3.236-1.167 6.458-2.284 9.541-.434 1.199-.893 2.43-1.613 3.535-.644.991-.982 2.142-1.61 3.171-1.827 2.99-4.239 5.485-6.494 8.125-1.419 1.66-3.051 3.072-4.634 4.545-1.269 1.18-2.672 2.219-3.988 3.352-.804.693-1.418 1.584-2.285 2.217-1.266.924-2.39 2.035-3.742 2.844-.629.377-.795 1.182-1.488 1.509-.263.123-.47.36-.797.336l-.006-1.938c.274-.525.077-1.096.164-1.64.284-.427.655-.749 1.082-1.042 1.826-1.247 3.386-2.829 5.159-4.144 2.622-1.945 4.882-4.295 7.217-6.547 2.724-2.629 5.282-5.443 7.181-8.753 1.973-3.441 3.689-7.016 4.529-10.918.525-2.44.709-4.944 1.015-7.422.109-.883.475-1.722.385-2.641-.064-.657-.29-1.271-.368-1.926-.253-2.127-.251-4.314-.785-6.369-.85-3.27-1.836-6.526-3.608-9.47-1.661-2.762-3.429-5.437-5.653-7.792-.344-.365-.704-.766-.437-1.347.393-.671 1.177-.852 1.705-1.354.225-.115.429-.263.627-.418.201-.099.402-.172.601.004z"/><path fill="#FDF2E4" d="m121.833 207.688.011-.897c.615-1.048 1.367-1.941 2.573-2.353.52-.176.932-.548 1.313-.916 1.151-1.111 2.387-2.121 3.483-3.307 1.142-1.236 2.536-2.244 3.744-3.443.871-.866 1.579-1.862 2.428-2.74 1.534-1.585 2.863-3.331 4.067-5.176.216-.33.411-.659.494-1.04.141-.65.384-1.268.745-1.81 1.352-2.031 1.694-4.439 2.526-6.661.353-.942.26-2.004.305-3.008.055-1.204.307-2.36.573-3.516.293-1.273.363-2.589.083-3.809-.451-1.959-.672-3.931-.747-5.916-.042-1.096-.603-1.978-.864-2.976-.503-1.928-1.32-3.713-2.366-5.453-.926-1.537-2.129-2.852-3.042-4.388-.675-1.137-1.746-2.021-2.501-3.132-.326-.48-.655-.937-.411-1.559.306-.435.692-.694 1.253-.566 1.072 1.493 2.431 2.773 3.325 4.402.114.208.242.411.406.588 2.735 2.95 4.374 6.536 5.463 10.3.751 2.595 1.219 5.321 1.273 8.079.019.967.391 1.928.159 2.915-.143.61-.198 1.231-.293 1.847-.356 2.316-.302 4.678-.849 6.976-.451 1.894-.935 3.759-2.013 5.414-.196.299-.414.609-.477.956-.353 1.959-1.641 3.428-2.685 5.001-2.032 3.061-4.41 5.877-7.19 8.273-2.523 2.174-4.813 4.614-7.565 6.534-.771.538-1.57 1.083-2.266 1.738-.197.186-.411.354-.713.31a.47.47 0 0 1-.228-.152z"/><path fill="#FDF4E8" d="M138.16 143.456c-.214.354-.03.588.208.856a59 59 0 0 1 4.371 5.605c1.433 2.075 2.383 4.362 3.586 6.532.341.615.422 1.364.578 2.042.344 1.495 1.083 2.869 1.201 4.434.149 1.976.185 4.011.716 5.894.626 2.217-.25 4.198-.401 6.284-.117 1.613-.255 3.243-.6 4.818-.706 3.23-1.814 6.336-3.433 9.232-.963 1.722-1.938 3.438-3.043 5.081-.838 1.246-1.914 2.272-2.89 3.385-2.041 2.327-4.364 4.377-6.615 6.5-1.688 1.592-3.569 2.935-5.319 4.438-1.243 1.068-2.491 2.108-3.844 3.024-.143.098-.317.148-.478.22l-.01-.509c-.131-.218-.066-.454-.067-.685 1.175-1.136 2.453-2.159 3.73-3.173 1.025-.814 2.067-1.63 2.987-2.537 1.444-1.422 3.14-2.57 4.436-4.147.264-.321.63-.55.993-.758.527-.3.976-.692 1.365-1.144 2.837-3.295 5.473-6.707 7.579-10.553 1.483-2.708 2.23-5.634 3.254-8.476.488-1.354.355-2.882.496-4.331.052-.535.112-1.061.238-1.585.215-.897.443-1.797.075-2.718a1.56 1.56 0 0 1-.095-.792c.261-1.559-.24-3.075-.249-4.595-.013-2.684-.781-5.148-1.628-7.625a33.4 33.4 0 0 0-3.028-6.459c-1.165-1.929-2.538-3.743-4.137-5.363-.4-.404-.701-.888-.991-1.376-.19-.317-.315-.645-.136-1.014a.8.8 0 0 1 .139-.244c.296-.242.582-.528 1.01-.262z"/><path fill="#FDF2E4" d="m122.203 210.549-.016.743c-.295-.583-.079-1.217-.177-1.82-.104-.198-.139-.391.038-.57.436.079.367.466.466.753.054.353-.085.638-.312.894z"/><path fill="#FDAB9B" d="m122.042 208.951-.031.522c-.301-.392-.129-.844-.162-1.271q.073.02.147.031c.211.227.268.464.045.718z"/><path fill="#FCEDD9" d="M114.3 183.362c.042-.245.225-.299.434-.376 5.206-1.911 9.989-4.588 14.4-7.933.162-.124.285-.298.427-.449.048-.438.418-.633.7-.881 2.033-1.789 4.006-3.633 5.625-5.822.218-.294.447-.674.939-.45.774 1.475.659 3.054.505 4.624-.093.948-.435 1.856-.514 2.811-.047.567-.498.764-1.097 1.01 1.072.507.883 1.243.553 2.006-.059.137-.138.28-.138.423-.004 1.706-.901 3.117-1.504 4.629-.994 2.496-2.518 4.661-4.213 6.701-1.543 1.857-3.29 3.541-5.112 5.126-1.025.891-2.008 1.872-3.264 2.476-.453.217-.694.638-.996 1.006-.233.284-.356.719-.852.688a.57.57 0 0 1-.218-.343c-.981-3.639-2.073-7.24-3.624-10.688a45 45 0 0 0-1.697-3.329c-.207-.375-.539-.735-.355-1.23z"/><path fill="#CFBFAB" d="M136.718 167.415a43.3 43.3 0 0 1-5.002 5.46c-.677.625-1.346 1.266-2.156 1.731-3.672 1.218-7.468 1.68-11.309 1.987-3.633.291-7.264.335-10.902.322-.321-.001-.664.075-.944-.17l.268-.003c1.728-.005 1.803-.155 1.116-1.74-.814-1.878-1.555-3.788-2.811-5.441-.208-.274-.363-.5-.754-.514-2.288-.082-4.534-.504-6.783-.889q-1.345-.27-2.69-.537-.085-.16.048-.28c.3-.204.62-.161.947-.084q3.133.749 6.33 1.114c1.21.138 2.431.191 3.647.284 3.808.289 7.613.232 11.426-.099a72.6 72.6 0 0 0 16.432-3.34c1.3-.427 2.638-.734 3.867-1.358.333-.132.671-.214 1.026-.08.346.419.08.806-.062 1.201-.361.546-.576 1.175-.954 1.713-.203.288-.342.64-.742.726z"/><path fill="#FCB3A0" d="M114.3 183.362c2.395 3.811 3.944 7.979 5.191 12.271.28.967.491 1.954.733 2.932-.927.468-1.708 1.111-2.473 1.821-.747.694-1.794.553-2.739.419-.563-.081-.986.041-1.346.456-.696 0-.642-.599-.757-1.007-.852-3.038-1.877-6.008-3.353-8.808-.694-1.315-1.431-2.605-2.324-3.798-.463-.62-.917-1.239-1.173-1.978l-.738-.865c.019-.784.573-.878 1.176-.906 1.983-.09 3.971-.144 5.924-.548.26-.054.52-.133.762-.238.444-.195.809-.123 1.116.249z"/><path fill="#FCEDD8" d="M137.644 164.051c-2.028 1.043-4.226 1.625-6.388 2.283a64 64 0 0 1-11.102 2.308c-3.788.451-7.601.749-11.418.556-4.462-.227-8.912-.623-13.268-1.707-.228-.057-.474-.045-.712-.064-.414-.008-.8-.156-1.199-.242-.241-.052-.37-.159-.303-.419.468-.39.97-.176 1.442-.043 2.253.634 4.572.868 6.88 1.168.114.015.236.043.412-.123a5.8 5.8 0 0 0-1.914-2.009c-1.941-1.26-3.8-2.612-6.078-3.358-1.758-.576-3.496-1.242-5.31-1.543-1.696-.28-3.38-.645-5.11-.782-1.687-.132-3.383-.259-5.066-.469-.31-.039-.647-.132-.992.189a24 24 0 0 0 3.557 2.209c.585.298 1.172.593 1.747.91.304.168.668.307.669.755-.456.373-1.065-.425-1.49.193l-.342.007c.055-.515-.294-.702-.683-.891-1.522-.74-3.02-1.522-4.365-2.563-2.794-1.785-5.44-3.769-7.88-6.01-1.001-.92-2.075-1.419-3.467-1.316-1.159.085-2.329.025-3.494.013-.512-.006-1.016-.068-1.48-.302-.459-.233-.777-.58-.711-1.128s.513-.704.967-.776c.89-.138 1.79-.049 2.685-.069.3-.007.598.01.896-.01.504-.035.47-.271.194-.563-.348-.37-.804-.623-1.132-1.014-1.279-1.529-2.413-3.162-3.557-4.792-.854-1.215-1.824-2.345-2.556-3.651-.301-.538-.983-1.989-1.011-2.603-.034-.702-.35-1.323-.612-1.952-.214-.516-.526-.192-.779-.006-.985.725-1.98 1.438-2.92 2.222-.292.245-.57.546-1.015.47a3 3 0 0 1-.116-1.763c.799.281 1.404-.066 1.98-.576.533-.47 1.12-.876 1.689-1.304.761-.572 1.429-.424 1.95.383.065.099.116.207.174.311.283.506.464 1.303 1.13 1.212.7-.096 1.141-.791 1.485-1.425.147-.272.1-.662.496-.779 1.066.304 1.694 1.203 2.44 1.893 7.387 6.833 16.096 11.168 25.79 13.623 4.612 1.169 9.304 1.779 14.078 1.947 8.066.283 15.889-.872 23.523-3.427.4-.134.802-.231 1.227-.141.365.238.233.532.021.751-.378.392-.203.681.095.987.374.386.749.769 1.208 1.057.459.286.855.645 1.229 1.032.486.499.916 1.008.181 1.762.827.11 1.614.063 1.948.858.201.481.055.931-.259 1.379.843-.51 1.252.089 1.672.615.727.914.81 1.664.277 2.431.568-.202.957.004 1.142.518.215.601.622 1.289-.047 1.807-.949.734.001 1.265.151 1.849.146.571.691.317 1.068.221.492-.125.993-.208 1.487-.317.319-.07.658-.117.891.215z"/><path fill="#FDEFDD" d="M76.814 160.287c1.556.895 3.105 1.801 4.67 2.681.454.256.487.53.173.902-.264.234-.52.478-.894.523.724-1.041.72-1.013-.589-1.265-2.154-.415-4.333-.349-6.506-.398-.118-.002-.246.031-.352-.004-2.278-.778-4.669-.357-6.991-.654-.855-.109-1.704-.32-2.56-.347-1.98-.063-3.937-.395-5.924-.388-1.374.006-2.75-.292-4.125-.294-1.383-.003-2.812-.064-4.102-.332-1.828-.38-3.657-.097-5.486-.482-1.509-.318-3.142-.323-4.656-.697-1.89-.468-4.085-.432-5.276-2.448-.252-.426-.641-.168-.973-.196-.117-.238.097-.367.176-.54v.002c.17-.248.383-.463.538-.722l.17-.175c.263-.392.666-.664.906-1.074l-.002.002c.63-.8 1.32-1.548 1.976-2.327v.001c.316-.308.515-.995 1.062-.703.528.281.3.897.147 1.381-.61 1.915-.21 2.62 1.48 3.628 1.553.925 3.255.939 4.912 1.129 2.623.3 5.274.366 7.91.581 2.198.179 4.386.6 6.578.615 2.087.015 4.146.349 6.233.311.858-.016 1.723.26 2.615.309.882.048 1.778.047 2.648.155.947.118 1.898.181 2.84.228 1.17.058 2.305.187 3.402.598"/><path fill="#CBBCAA" d="M82 163.864c.412-.685.965-.141 1.451-.167.402-.137.768.02 1.123.158a69 69 0 0 0 8.138 2.635c.202.051.403.111.542.285.353.554 1.063.293 1.502.653l-.004.193c-3.67-.807-7.207-2.062-10.753-3.275-.66-.226-1.219-.771-1.998-.482"/><path fill="#FDEEDC" d="M106.06 185.67c1.479 1.537 2.562 3.348 3.568 5.203 1.625 2.998 2.782 6.179 3.64 9.472.081.312.208.612.314.918.231.114.351.321.412.552.386 1.488.628 3.002.784 4.53.032.311-.12.571-.31.807-.188-.189-.35-.32-.682-.294-1.777.138-3.011-.434-3.717-2.062-.023-.055-.042-.118-.081-.158-1.389-1.423-1.353-3.334-1.761-5.093-.186-.803-.31-1.632-.615-2.388-.293-.725-.219-1.453-.317-2.179-.255-1.88-.137-3.842-1.132-5.576-.069-.121-.138-.317-.089-.422.517-1.11-.027-2.209-.013-3.31z"/><path fill="#FDB19E" d="M114.468 207.152c-.057-1.76-.465-3.466-.79-5.186-.044-.232-.064-.469-.096-.703-.042-.784.421-1.011 1.075-.855.59.139 1.173.128 1.76.118.685-.012 1.272-.241 1.645-.866.488-.82 1.227-1.153 2.163-1.094l.039.337c.549.302.502.87.618 1.365.274.557.378 1.161.504 1.759.059.522.353 1.059-.098 1.548-.215-.258-.391-.353-.725-.085-1.395 1.124-2.83 2.2-4.401 3.075-.252.14-.551.209-.838.274-.473.11-.73.361-.668.869l-.188-.554z"/><path fill="#FD958E" d="M78.59 109.493c2.675.005 5.245.681 7.832 1.235 4.696 1.006 9.275 2.419 13.819 3.951 4.075 1.375 7.948 3.23 11.87 4.971 2.785 1.235 5.358 2.846 8.007 4.323 3.308 1.842 6.459 3.931 9.493 6.194a105 105 0 0 1 6.194 4.963c1.975 1.72 3.792 3.599 5.615 5.475.097.099.255.138.384.206-.195.241-.411.452-.724.534-.42.24-.731.046-1.036-.238-1.045-.974-2.026-2.025-3.078-2.98-1.206-1.095-2.363-2.248-3.654-3.262-1.945-1.526-3.826-3.135-5.864-4.538-3.635-2.503-7.365-4.841-11.256-6.947-4.366-2.362-8.891-4.361-13.458-6.266-3.025-1.261-6.19-2.155-9.331-3.11-3.891-1.183-7.843-2.073-11.83-2.842-.32-.062-.64-.153-.973-.081-.851-.299-1.682-.627-2.01-1.587z"/><path fill="#FE9991" d="M80.571 110.951c.23-.268.543-.244.832-.183 3.993.834 7.978 1.669 11.895 2.852 2.309.698 4.594 1.469 6.9 2.172 1.813.553 3.562 1.339 5.298 2.113 2.667 1.188 5.378 2.288 7.958 3.668 1.995 1.067 4.003 2.115 5.991 3.195 2.801 1.523 5.381 3.393 8.02 5.166 2.167 1.458 4.125 3.2 6.203 4.776 1.163.882 2.131 1.955 3.239 2.881 1.208 1.009 2.272 2.238 3.429 3.343.226.214.411.423.744.412l-.233.318-.512.205c-.49.386-.904.304-1.321-.149-3.288-3.558-7.078-6.553-10.898-9.5-2.215-1.71-4.604-3.187-6.981-4.673a108 108 0 0 0-8.562-4.831c-2.574-1.299-5.152-2.622-7.902-3.544-.652-.219-1.309-.418-1.868-.84-.817-.61-1.811-.755-2.754-1.032a2.4 2.4 0 0 1-.63-.258c-1.383-.704-2.901-1.035-4.345-1.569-.684-.252-1.37-.613-2.15-.485-.932-.129-1.857-.283-2.723-.675-.414-.254-.849-.448-1.348-.461a1 1 0 0 1-.267-.071c-.808-.302-1.619-.57-2.492-.648-.8-.07-1.569-.326-2.339-.545-.719-.204-1.444-.347-2.19-.376-.522-.272-1.025-.556-.994-1.261"/><path fill="#FDFAF5" d="m143.552 139.725.353-.009c.072.157.099.387.221.461.728.434.989 1.199 1.393 1.864.424.717.899 1.382 1.581 1.894.329.246.653.546.867.891 1.246 2.014 2.623 3.952 3.565 6.146.337.786.842 1.521 1.136 2.3.697 1.843 1.327 3.717 1.81 5.639.536 2.137.822 4.285.969 6.491.12 1.793.35 3.591.485 5.392.064.851-.546 1.581-.365 2.443.141.668.135 1.328.087 2.021-.101 1.461-.65 2.827-.744 4.285-.16 2.459-.921 4.774-1.857 7.037a2 2 0 0 1 .076-1.311c.494-1.216.64-2.532 1.136-3.735a5.5 5.5 0 0 0 .406-2.347c-.053-1.523.577-2.932.771-4.414.023-.173.129-.371.075-.512-.442-1.162-.285-2.335-.139-3.519.161-1.311-.451-2.654.143-3.954-.924-1.418-.383-3.059-.691-4.58-.334-1.651-.679-3.314-1.18-4.9-1.056-3.35-2.463-6.593-4.297-9.59-.554-.903-1.128-1.857-1.786-2.686-.682-.859-1.502-1.635-2.209-2.504-.607-.745-.914-1.732-1.824-2.242-.217-.121-.079-.377.019-.565z"/><path fill="#FCEDDA" d="m33.399 156.348-.177.54-.365.176c.04-.344.258-.555.542-.716m43.415 3.939c-.199.053-.456.212-.588.142-1.062-.572-2.247-.364-3.34-.391-1.163-.029-2.314-.582-3.493-.143-.257.096-.534.007-.779-.122a1.8 1.8 0 0 0-1.39-.133c-.496.147-.934.137-1.34-.219-.105-.091-.278-.197-.391-.17-2.09.47-4.14-.417-6.252-.17-.71.083-1.688.17-2.465-.32-.18-.113-.468-.099-.7-.075-.749.081-1.396.133-2.19-.242-.612-.29-1.601-.072-2.426-.106-1.28-.052-2.547-.287-3.816-.315-1.045-.023-2.103.028-3.132-.117-2.067-.291-4.207-.408-5.957-1.768-1.083-.841-1.353-2.062-.772-3.337.05-.108.114-.211.154-.323.12-.335.304-.76-.027-.981-.295-.197-.456.276-.699.417q-.114.068-.226.142c.568-1.059 1.488-1.833 2.29-2.689 1.763-1.883 3.477-3.821 5.426-5.525-.015-.371.238-.6.468-.826 1.425-1.398 2.96-2.672 4.488-3.953.257-.216.535-.52.943-.25.679-.1.994-.723 1.505-1.069.934-.631 1.797-1.368 2.672-2.082.418-.341.822-.232.932.186.23.88.79 1.667.75 2.626-.007.183.01.364-.11.503-.584.681-.211 1.009.461 1.144.391.079.542.333.693.622.507.968 1.236 1.796 1.81 2.698.962 1.515 2.203 2.819 3.096 4.387a5.6 5.6 0 0 0 1.823 1.9c.245.156.512.36.634.608.21.423.333.864-.46.838a65 65 0 0 0-3.496 0c-.43.008-1-.024-1.087.531-.09.576.407.78.89.937.705.231 1.424.102 2.136.13 1.343.05 2.687-.076 4.028.07.946.102 1.502.831 2.127 1.386a66 66 0 0 0 7.505 5.741c.12.079.204.211.305.318"/><path fill="#CBBCAA" d="M50.601 138.812c-1.218.664-2.126 1.708-3.173 2.581-.938.78-1.82 1.629-2.726 2.448-1.051-.297-1.736-1.108-2.515-1.785.368-.646.885-1.158 1.384-1.705 1.166-1.279 2.406-2.501 3.373-3.958.321-.484.81-.867 1.255-1.258.204-.181.436-.311.456-.615.116-.053.262-.07.33.026.601.85 1.445 1.559 1.62 2.667.228.534.742 1.069-.005 1.6z"/><path fill="#FCEDDA" d="M36.987 152.055c-.501.909-1.186 1.662-1.976 2.327.478-.928 1.16-1.684 1.975-2.327"/><path fill="#FCEDDA" d="M35.013 154.379c-.093.533-.504.799-.905 1.074.121-.509.517-.789.905-1.074m-1.076 1.248c-.022.358-.246.565-.539.722.034-.347.263-.553.539-.722m16.668-18.414c-.823-.774-1.175-1.887-1.95-2.694q-.016-.174-.028-.347c.14-.094.28-.065.417.006.87.451.967.429 1.407-.455.599-1.207 1.417-2.176 2.766-2.57.497-.146.633-.579.855-.957.194-.332.203-.743.454-1.05.453-.137.65.214.865.48.506.625.976 1.279 1.49 1.898.459.68 1.03 1.278 1.454 1.984.183.415.514.708.838 1.007.143.155.255.322.241.545.213 1.328-.849 1.92-1.652 2.527-.557.42-.96-.336-1.289-.75-.215-.27-.304-.638-.464-.953q-.587-1.154-1.56-.377c-.716.572-1.451 1.122-2.14 1.725-.6.523-1.142.776-1.702-.019z"/><path fill="#FDF0E0" d="M54.568 129.173c.173.952-.575 2.088-1.455 2.334-1.074.299-1.688 1.154-2.246 2.04-.109.172-.136.394-.23.578-.196.378-.483.701-.855.888-.594.298-.43-.504-.788-.596-.135-.035-.246-.16-.367-.245a17.6 17.6 0 0 1-2.155-3.753c.438.533.79.442 1.253-.044a132 132 0 0 1 3.955-3.949c.38-.366.586-.718.395-1.232.383-.06.543.216.72.47.284.649.767 1.18 1.103 1.8.222.569.855.98.67 1.708z"/><path fill="#FDA195" d="M50.044 120.763c.474.236.344 1.065.925 1.087.532.021.81-.563 1.19-.883 1.456-1.232 2.971-2.402 4.616-3.349 2.203-1.268 4.41-2.575 6.903-3.241.308-.083.651-.035.979-.048.34.89-.359 1.543-.53 2.317a2.3 2.3 0 0 1-.278.471c-.504.461-1.192.524-1.787.783-3.257 1.42-6.157 3.379-8.874 5.64-.424.354-.805.953-1.534.634l-1.38-2.545-.231-.866"/><path fill="#FDA698" d="M51.655 124.174c1.198-.507 2.068-1.472 3.052-2.258 2.409-1.924 5.09-3.352 7.88-4.607.344-.154.734-.21 1.103-.312.354.332.173.726.13 1.105-.17.44-.156.919-.299 1.366-.196.283-.503.421-.802.541-3.218 1.295-6.02 3.236-8.628 5.483q-.305.264-.66.459c-.335.182-.626.164-.846-.184l-.511-.571z"/><path fill="#FDF8F0" d="m80.571 110.951.933 1.04c.146.117.323.201.396.392a.48.48 0 0 1-.05.431c-.31.382-.721.371-1.146.29-1.908-.363-3.85-.482-5.776-.652a18.4 18.4 0 0 0-3.387-.012c-1.532.148-3.085.025-4.608.389-.337.081-.807.073-.884-.481l1.249-1.433c.34-.941 1.135-1.235 2.015-1.409 1.098-.654 2.343-.833 3.56-1.106.71-.131 1.422-.109 2.134-.012 1.236.234 2.43.606 3.583 1.105z"/><path fill="#FD958F" d="m69.313 109.506-2.015 1.409c-1.504.564-3.125.649-4.642 1.202-3.215 1.169-6.24 2.662-8.942 4.764-1.149.894-2.453 1.594-3.434 2.697-.294.329-.508.179-.721-.083l-.192-1.065c2.94-2.467 6.007-4.737 9.516-6.365 2.357-1.093 4.81-1.868 7.347-2.4.267-.216.63.039.897-.178h.358c.33-.229.746.051 1.077-.179.272-.017.516.073.75.198m5.696-1.118-2.135.012c.71-.262 1.421-.245 2.134-.012"/><path fill="#FD958E" d="M68.562 109.308c-.32.29-.714.139-1.077.179.321-.291.714-.14 1.076-.179m-1.434.179c-.26.26-.59.153-.897.178.259-.261.59-.154.897-.178"/><path fill="#FDF5EA" d="M66.05 112.348c.67.448 1.339.056 1.98-.062.76-.141 1.476-.259 2.272-.151 1.195.161 2.405-.104 3.626-.08 1.575.032 3.108.344 4.671.399.852.029 1.712.147 2.544.395.286.085.524-.038.69-.286.621-.094.703.447.947.797.379.682.687 1.392.825 2.166.192.464.4.925.234 1.446-.309.595-.823.493-1.322.363-2.562-.665-5.16-.94-7.809-1.104-3.278-.202-6.457.236-9.66.714-.392.059-.958.38-1.172-.332.066-.828.579-1.504.78-2.285.486-.647.798-1.413 1.395-1.982z"/><path fill="#FDEFDE" d="m121.287 203.574-.187-1.606c.126-.38.509-.486.777-.712 1.431-1.209 2.714-2.599 4.221-3.704 1.446-1.06 2.754-2.216 3.819-3.653.087-.117.218-.202.336-.294a17 17 0 0 0 2.244-2.12 23.4 23.4 0 0 0 2.103-2.742c1.219-1.874 2.381-3.789 3.083-5.925.4-1.216 1.17-2.306 1.324-3.591.242-2.029 1.08-3.94 1.061-6.031-.007-.868.329-1.745.27-2.647-.136-2.046-.372-4.07-.88-6.067-.278-1.092-.614-2.177-.772-3.301-.22-1.555-1.225-2.764-1.882-4.125-.49-1.015-1.124-1.957-1.583-2.997-.375-.849-1.036-1.574-1.667-2.188-1.03-1.002-1.667-2.324-2.814-3.204-.284-.218-.56-.456-.605-.85a.53.53 0 0 1 .06-.257c.23-.274.603-.325.868-.55.228-.136.452-.284.728-.31a.7.7 0 0 1 .398.098c.188.189.483.289.595.533.373.815.898 1.449 1.788 1.739.195.064.317.282.386.477.521 1.485 1.6 2.635 2.466 3.892 1.772 2.572 3.036 5.334 3.888 8.323.329 1.153.348 2.391.704 3.472.756 2.298.153 4.627.551 6.905.067.387-.038.771-.096 1.154-.367 2.438-.662 4.89-1.483 7.237a12.8 12.8 0 0 0-.683 3.312c-.048.675-.326 1.204-.848 1.605-.398.306-.581.723-.778 1.167-.69 1.553-1.546 3.022-2.681 4.293-1.426 1.597-2.787 3.25-4.199 4.859-.059.067-.1.16-.171.207-1.126.74-1.88 1.928-2.883 2.703-1.47 1.135-2.786 2.473-4.363 3.475-.605.385-1.15.85-1.66 1.358-.338.338-.707.655-1.243.611l-.188-.546z"/><path fill="#FDF0E1" d="M134.398 145.628c-.071 1.203.891 1.925 1.549 2.596 1.387 1.413 2.39 3.102 3.541 4.654 1.62 2.186 2.69 4.725 3.583 7.362.865 2.554.499 5.219 1.235 7.723.365 1.243.224 2.469.334 3.702.064.722-.272 1.332-.406 1.991-.355 1.755-.151 3.598-.597 5.28-.595 2.239-1.083 4.559-2.314 6.603-.471.781-.872 1.597-1.088 2.523-.238 1.017-1.127 1.723-1.611 2.634-.719 1.35-1.889 2.322-2.865 3.447-1.742 2.009-3.425 4.094-5.659 5.628-.476.327-.851.788-1.156 1.33-.434.77-1.332 1.108-1.954 1.743-.898.919-1.843 1.825-3.177 2.215-.475.139-.845.716-1.2 1.145-.22.265-.469.446-.766.588a.4.4 0 0 1-.011-.162c-.193-.275.017-.618-.152-.898l-.042-.544c.38-.633.964-1.08 1.579-1.413 1.132-.612 2.005-1.493 2.834-2.429.737-.833 1.593-1.528 2.432-2.242 1.153-.984 2.18-2.115 3.299-3.103 2.222-1.962 3.826-4.391 5.657-6.644.74-.911 1.085-2.108 1.758-3.094 1.624-2.38 2.08-5.147 2.639-7.884.249-1.22.58-2.411.732-3.662.282-2.325.228-4.65.253-6.976.007-.743-.219-1.476-.378-2.192-.402-1.817-.587-3.667-1.286-5.447-.639-1.628-1.275-3.256-1.995-4.852-.224-.494-.48-.949-.866-1.339-1.286-1.303-2.038-3.007-3.281-4.346-.627-.674-1.129-1.458-1.824-2.077-.251-.223-.423-.501-.388-.863.061-.397.46-.534.644-.839a.8.8 0 0 1 .194-.195c.26-.146.517-.225.756.037z"/><path fill="#FDF0E0" d="M132.962 146.513c.028.244.115.463.292.638 1.628 1.609 3.083 3.351 4.245 5.33.162.278.416.507.652.732 1.453 1.38 2.009 3.291 2.73 5.033.45 1.09.877 2.251 1.22 3.407.32 1.075.396 2.213.595 3.315.239 1.328.628 2.657.504 4.048-.089.992-.308 2.004.135 2.982.043.092.015.249-.036.346-.588 1.119-.35 2.345-.475 3.525-.016.147-.029.296-.064.439-.58 2.385-1.121 4.78-1.76 7.147-.343 1.272-1.193 2.326-1.779 3.497-1.012 2.018-2.321 3.846-3.783 5.555-.812.948-1.426 2.093-2.368 2.882-1.851 1.549-3.429 3.389-5.365 4.849-.938.708-1.727 1.622-2.532 2.491-.246.266-.474.572-.787.702-1.024.426-1.666 1.43-2.744 1.755-.232-.329-.137-.709-.167-1.068.999-.729 1.864-1.615 2.843-2.377 1.04-.81 2.298-1.415 3.012-2.615.072-.122.22-.291.325-.286.947.053 1.201-.705 1.593-1.307.397-.609.947-.99 1.587-1.364.681-.396 1.213-1.093 1.713-1.731.212-.273.399-.577.638-.841 1.739-1.919 3.468-3.845 4.777-6.098.18-.308.334-.627.398-.989.095-.542.321-.989.845-1.293.548-.316.751-.822.774-1.495.058-1.639.625-3.188 1.075-4.748.279-.968.637-1.892.578-2.937-.046-.831.355-1.607.506-2.421.253-1.371-.204-2.698-.058-4.062.118-1.114.028-2.221-.256-3.372-.405-1.649-.497-3.38-.978-5.036-.456-1.573-1.219-3.01-1.915-4.477-.051-.106-.19-.187-.202-.29-.167-1.429-1.605-2.105-2.033-3.295-.471-1.312-1.91-1.989-2.032-3.464-.032-.401-.454-.427-.768-.499-.578-.133-1.033-.459-1.071-1.05-.038-.597-.774-.677-.777-1.241-.014-.146.066-.24.178-.315.243-.084.488-.181.732-.002zm-11.28 59.218c.236.268.135.593.152.898-.216-.271-.154-.589-.152-.898"/><path fill="#FD9F94" d="M83.32 115.566c-.18-.744-.488-1.44-.8-2.134.32-.413.756-.288 1.155-.212 2.288.438 4.548 1.003 6.799 1.585 5.358 1.388 10.538 3.312 15.614 5.488 5.682 2.435 11.157 5.272 16.363 8.634 3.794 2.449 7.378 5.162 10.879 7.993 1.344 1.087 2.538 2.344 3.715 3.612.758.817 1.496 1.69 2.76 1.699l-1.646 1.225-.876.386c-.407.127-.571-.229-.824-.41-1.418-1.017-2.443-2.436-3.717-3.605-3.243-2.973-6.826-5.5-10.447-7.968-3.3-2.25-6.797-4.172-10.361-5.997-3.861-1.977-7.81-3.72-11.842-5.29-1.86-.726-3.767-1.328-5.675-1.93-3.446-1.087-6.948-1.948-10.466-2.756a1.5 1.5 0 0 1-.631-.32"/><path fill="#FD9A91" d="M139.805 142.231c-.934.635-1.524.066-2.124-.575-1.992-2.127-4.03-4.218-6.368-5.965-2.094-1.563-4.098-3.241-6.289-4.682-2.738-1.798-5.481-3.587-8.334-5.191-1.865-1.047-3.842-1.892-5.731-2.899-3.429-1.827-7.049-3.207-10.669-4.576-4.203-1.59-8.463-3.016-12.89-3.9-1.629-.325-3.193-.963-4.88-1.011l-.686-.868-.14-.216c.372-.292.805-.23 1.19-.113 1.952.593 3.997.777 5.949 1.366.459.196.962.217 1.435.357.835.47 1.79.492 2.69.716 2.246.613 4.413 1.467 6.637 2.146l.538.179c.89.536 1.93.673 2.87 1.073 1.031.832 2.373.916 3.536 1.454 2.916 1.348 5.82 2.706 8.652 4.231 3.648 1.964 7.159 4.139 10.611 6.42 2.912 1.924 5.514 4.242 8.25 6.39 1.979 1.551 3.55 3.5 5.387 5.185.338.31.595.117.896.117a.76.76 0 0 1-.53.363z"/><path fill="#FDA698" d="M134.398 145.628a1.03 1.03 0 0 0-.692.188c-.45.125-.655-.236-.874-.485-1.757-2.002-3.818-3.678-5.829-5.404-1.517-1.301-3.239-2.338-4.844-3.526-1.994-1.476-4.205-2.61-6.213-4.063-1.063-.768-2.253-1.333-3.448-1.892-3.864-1.806-7.607-3.867-11.581-5.445-2.357-.936-4.757-1.753-7.166-2.533-2.979-.966-6.013-1.759-9.057-2.503-.345-.084-.691-.208-.89-.548a4.4 4.4 0 0 1-.005-1.767c.364-.541.885-.385 1.378-.29 2.26.437 4.486 1.019 6.69 1.678 4.493 1.345 8.945 2.833 13.207 4.79 2.922 1.342 5.897 2.579 8.665 4.272 1.925 1.178 3.999 2.126 5.914 3.347a108 108 0 0 1 10.075 7.281c2.226 1.81 4.219 3.858 6.338 5.776.019.411-.135.647-.591.57l-1.075.554z"/><path fill="#FDF2E5" d="m135.473 145.074.564-.516c.118-.109.249-.114.39-.049 1.686 2.227 3.601 4.29 5.094 6.654 1.074 1.7 2.094 3.43 2.874 5.319.837 2.026 1.408 4.1 1.959 6.202.39 1.485.124 3.043.575 4.503.441 1.426.161 2.892.336 4.331.087.719-.265 1.395-.341 2.109-.353 3.309-.57 6.665-1.845 9.78-.999 2.441-2.018 4.875-3.383 7.17-.86 1.443-1.957 2.689-2.836 4.104-1.203 1.937-2.944 3.451-4.569 5.013-2.187 2.104-4.443 4.155-6.794 6.07-1.493 1.216-2.901 2.545-4.488 3.646-.24.167-.469.392-.807.247-.015-.243.039-.503-.161-.705l-.045-.717c.802-.824 1.821-1.377 2.705-2.107a47 47 0 0 1 2.631-2.043c.594-.425 1.029-.976 1.547-1.454 1.917-1.766 4.016-3.333 5.761-5.286 2.009-2.247 4.016-4.493 5.563-7.101.453-.765.964-1.498 1.466-2.233.14-.203.25-.395.261-.646.034-.738.347-1.374.742-1.981 1.434-2.202 1.896-4.711 2.311-7.239.38-2.313.216-4.686.833-6.98.187-.691.208-1.484-.155-2.187-.324-.626.07-1.253-.07-1.919-.42-2.016-.57-4.09-1.019-6.098-.353-1.586-.968-3.123-1.684-4.591-.721-1.479-1.549-2.906-2.332-4.355-.071-.13-.128-.283-.235-.376-1.44-1.244-2.262-2.957-3.409-4.419-.54-.688-1.37-1.149-1.439-2.146"/><path fill="#FDA296" d="m136.365 144.526-.328.032c-.435-.064-.761-.305-1.071-.602-1.243-1.194-2.452-2.429-3.758-3.551-1.73-1.485-3.484-2.954-5.33-4.291-2.456-1.778-4.917-3.563-7.534-5.111-1.612-.953-3.325-1.724-4.927-2.678-1.977-1.177-4.09-2.048-6.125-3.084-2.557-1.304-5.22-2.322-7.881-3.338-1.66-.633-3.326-1.286-5.059-1.745-2.012-.532-3.976-1.25-5.996-1.752-1.436-.357-2.875-.758-4.366-.871a.33.33 0 0 1-.28-.173c-.081-.169.103-.381-.083-.534.016-.449-.206-.841-.309-1.261.95-.138 1.83.222 2.719.432 3.39.801 6.75 1.725 10.058 2.809a99 99 0 0 1 10.873 4.273c3.645 1.69 7.261 3.444 10.718 5.481 2.424 1.428 4.814 2.926 7.091 4.608 2.246 1.658 4.522 3.282 6.68 5.049 1.044.856 2.074 1.763 2.967 2.817.858 1.015 1.898 1.877 2.859 2.807l-.018.161c-.312.156-.422.655-.901.523z"/><path fill="#FDF3E7" d="M136.365 144.526c.266-.232.542-.448.901-.523-.242.846.439 1.343.866 1.799 1.63 1.737 3.16 3.578 4.361 5.599 1.036 1.741 2.068 3.538 2.682 5.516.395 1.275.88 2.523 1.347 3.776.566 1.516.658 3.104.698 4.69.017.659.09 1.286.283 1.91.186.602.209 1.226.102 1.838-.147.832-.205 1.634.142 2.447.314.732.047 1.511-.171 2.182-.341 1.048-.38 2.134-.395 3.169-.042 3.002-1.35 5.631-2.205 8.393-.77 2.486-2.278 4.611-3.637 6.773-1.199 1.911-2.368 3.919-4.251 5.329-.225.169-.353.471-.509.722-.524.842-1.142 1.591-2.045 2.055-1.229.631-1.84 1.934-2.953 2.689-1.432.972-2.529 2.32-3.861 3.415-1.409 1.157-2.914 2.224-4.193 3.542-.362.372-.818.591-1.325.704l-.002-.894c1.096-.996 2.408-1.734 3.327-2.952.411-.543 1.224-.607 1.783-1.107 1.177-1.052 2.178-2.304 3.432-3.243 1.122-.841 2.209-1.739 3.148-2.735 1.904-2.022 4.005-3.857 5.498-6.292a38 38 0 0 1 2.341-3.414c.744-.954 1.112-2.114 1.576-3.181.788-1.811 1.772-3.571 2.136-5.553.278-1.515.731-3.017.817-4.541.093-1.658.567-3.258.635-4.882.058-1.442.148-2.931-.281-4.384-.494-1.672-.314-3.444-.69-5.161a31.6 31.6 0 0 0-2.591-7.345c-1.03-2.059-2.118-4.201-3.785-5.862-1.106-1.1-1.663-2.607-2.906-3.572-.293-.226-.276-.574-.276-.905z"/><path fill="#FDEEDB" d="m120.621 200.342-.357-1.44c.552-.95 1.188-1.713 2.236-2.29 1.244-.685 2.254-1.804 3.338-2.767 1.466-1.302 2.793-2.74 4.128-4.173 1.326-1.426 2.278-3.102 3.329-4.715.944-1.451 1.32-3.169 2.186-4.657.172-.296.191-.625.17-.953-.039-.58.094-1.121.329-1.645.27-.599.679-1.238-.448-1.421-.188-.03-.383-.239-.326-.474a.55.55 0 0 1 .62-.412c.695.114.8-.269.686-.776-.096-.425.129-.757.224-1.118.539-2.034.405-4.057-.018-6.084l1.433-2.498c.391.106.473.436.52.761.268 1.854.734 3.699.548 5.586-.391 3.942-.914 7.846-2.501 11.551-.723 1.688-1.765 3.149-2.636 4.722-1.441 2.601-3.323 4.807-5.471 6.761-2.218 2.016-4.445 4.05-6.922 5.769-.314.217-.638.468-1.067.276z"/><path fill="#FDEEDC" d="M120.621 200.342c1.873-1.3 3.656-2.69 5.337-4.252 1.299-1.206 2.765-2.25 3.988-3.555a38 38 0 0 0 2.607-3.131c1.067-1.423 2.107-2.946 2.879-4.523 1.47-3.004 2.609-6.173 2.929-9.571.178-1.886.696-3.743.516-5.659a39 39 0 0 0-.724-4.734l.358-1.045c-.74-.23-1.012-.822-1.217-1.499-1.056-3.489-2.789-6.644-5.064-9.463-.983-1.218-1.902-2.518-3.08-3.583-.303-.272-.63-.568-.572-1.054.412-.595.956-.872 1.687-.695.037.369.309.543.574.75.685.532 1.326 1.109 1.679 1.936.08.187.189.425.351.502.72.342.99 1.06 1.474 1.594 1.502 1.657 2.116 3.806 3.318 5.608 1.235 1.849 1.453 3.968 2.001 6.016.251.941.597 1.891.656 2.836.127 2.032.787 4.052.092 6.131-.254.763-.015 1.656-.241 2.506-.415 1.562-.419 3.272-1.042 4.73-1.009 2.359-1.752 4.837-3.18 7.038-.733 1.129-1.61 2.202-2.121 3.476-.099.246-.33.326-.527.459-.244.164-.616.322-.676.55-.294 1.116-1.346 1.432-2.08 2.078-.111.098-.263.171-.336.291-1.098 1.809-2.877 2.914-4.451 4.213-1.293 1.068-2.441 2.288-3.742 3.338-.239.192-.604.23-.911.339l-.48-1.626z"/><path fill="#FDEEDB" d="M128.656 148.292c1.175 1.324 2.423 2.592 3.507 3.987 1.38 1.777 2.737 3.578 3.657 5.67.726 1.655 1.666 3.228 1.985 5.027.09.509.869.305.706.896l-.867.178c-1.049-.049-1.996.441-3.015.574-.492.063-.756.015-.774-.521-.013-.412-.294-.702-.465-1.045-.211-.425-.617-.95.337-1.069.316-.04.492-.312.381-.679-.104-.341-.171-.695-.296-1.028-.092-.243-.261-.582-.574-.323-.639.529-.693-.226-1.128-.414 1.21.181.954-.506.84-1.109-.13-.695-.638-1.177-1.114-1.573-.563-.469-.62.187-.755.634-.387-.292-.835-.439-.289-1.006.301-.314.489-.808.149-1.214-.282-.338-.665-.6-1.179-.375-.557.245-.689-.263-.985-.528.953-.586.917-.578.177-1.415-.7-.794-1.697-1.199-2.399-1.992-.795-.896-.832-.858.004-1.616.077-.071.086-.216.126-.326a.5.5 0 0 1 .188-.357c.569-.242 1.095-.699 1.785-.375z"/><path fill="#FCB4A0" d="m126.854 148.836-.17.188c-2.577.753-5.115 1.629-7.747 2.196a74 74 0 0 1-9.274 1.409c-1.816.157-3.64.291-5.447.275-9.414-.088-18.501-1.805-27.126-5.701-5.705-2.577-10.92-5.878-15.476-10.185-.713-.674-1.466-1.305-2.202-1.956l-.352-.35c-.25-.398-.648-.671-.902-1.065-.529-.627-1.068-1.248-1.463-1.975 1.64-.956 2.85-2.524 4.606-3.298 1.469-.646 2.796-1.554 4.271-2.179.434.041.661.371.922.655 3.628 3.955 9.674 4.1 13.532.335.419-.409.768-.935 1.431-1.006 1.506.481 3.09.693 4.582 1.156 1.417.44 2.897.646 4.275 1.197 1.97.788 4.026 1.3 6.031 1.973.141.047.31.065.417.157 1.582 1.357 3.67 1.462 5.493 2.222 1.244.518 2.256 1.434 3.514 1.936 1.128.45 2.194 1.048 3.3 1.558 1.285.591 2.615 1.179 3.685 2.148.632.571 1.312 1.027 2.118 1.292.839.275 1.486.817 2.178 1.35 1.103.848 2.227 1.679 3.361 2.487.745.531 1.639.914 2.319 1.501 1.391 1.204 2.521 2.702 4.123 3.681z"/><path fill="#FDEFDD" d="M93.254 166.775c-.29.195-.57.055-.858-.016-2.927-.732-5.764-1.738-8.575-2.821-.135-.052-.247-.159-.37-.241-1.459-.985-3.143-1.566-4.596-2.563-.538-.369-1.112-.687-1.672-1.026-.155-.096-.309-.197-.315-.402-.006-.283.236-.317.427-.374.198-.058.422-.146.61-.106 1.428.306 2.911.017 4.329.393 1.296.344 2.64.102 3.956.433 1.8.451 3.672.596 5.458 1.149 3.645 1.13 7.048 2.696 9.843 5.368.299.285.538.634.799.958.144.178.401.34.267.608-.153.306-.476.215-.724.171-2.103-.371-4.247-.492-6.324-1.028-.747-.191-1.504-.338-2.255-.505z"/><path fill="#FE9A91" d="M88.832 113.601c-1.739-.331-3.488-.622-5.214-1.013-.643-.145-1.27-.263-1.924-.239l-.189-.358c2.506.25 4.94.822 7.328 1.611zm10.763 3.22c-1.69-.211-3.217-.967-4.828-1.447-.612-.183-1.267-.314-1.809-.7.837-.084 1.591.271 2.318.56 1.428.565 2.97.818 4.32 1.587m3.407 1.251c-1.018-.193-2.046-.362-2.87-1.073.965.336 2.002.479 2.87 1.073m-12.735-4.114c-.512.014-1.011-.021-1.435-.357.508.003.99.103 1.435.357"/><path fill="#FDB09E" d="M65.518 126.286c-.698.857-1.72 1.301-2.661 1.708-1.744.756-3.289 1.713-4.621 3.062-.38.385-.837.893-1.54.614-.894-.675-1.282-1.78-2.128-2.496l-.906-1.62c1.166.013 1.84-.897 2.65-1.486 2.316-1.685 4.787-3.104 7.292-4.475.413.131.439.516.54.841.24.782.497 1.559.869 2.291.09.546.882.867.505 1.562z"/><path fill="#FCEDD8" d="M58.159 133.646c.392.277.787.551.901 1.064-.387-.282-.796-.544-.901-1.064"/><path fill="#FDAA9B" d="M63.55 121.626c-.014.245-.064.441-.329.573a48 48 0 0 0-5.432 3.215c-.979.665-2.002 1.302-2.844 2.118-.55.532-.848.42-1.284.02-.433-.551-.876-1.097-1.077-1.787.304.18.53.077.794-.137 1.145-.935 2.282-1.882 3.477-2.754 1.99-1.451 4.138-2.625 6.5-3.374.515.49.128 1.165.356 1.715.005.159-.032.303-.16.41z"/><path fill="#FDF1E3" d="M83.628 116.827c.174.138.166.345.207.535.146.975-.017 1.973.226 2.946.074.298.03.646-.238.893-.488.328-1.018.266-1.555.166-2.4-.449-4.797-1.036-7.24-1.025-1.881.008-3.74-.248-5.675.143-1.628.33-3.347.379-4.992.806-.483.125-.807-.114-.903-.617.02-.865-.08-1.729.058-2.59l.176-1.085.186-.382c.406.271.808.025 1.19-.048 2.575-.487 5.176-.835 7.787-.778 1.566.034 3.19-.169 4.692.196 1.698.413 3.504.24 5.126 1.007.3.142.738.445.956-.165z"/><path fill="#FDB09E" d="m63.514 118.083.036 2.676c.096.183.14.363-.021.534-.34-.57-.094-1.197-.173-1.791.06-.472-.133-.972.158-1.419m63.341 30.753c-1.281-.491-2.523-1.031-3.183-2.359-.292-.587-.812-.933-1.361-1.249-1.309-.753-2.492-1.693-3.738-2.528-1.426-.954-2.552-2.397-4.361-2.789-.604-.131-1.122-.536-1.549-1.022-.418-.476-.993-.731-1.524-1.062-1.256-.782-2.623-1.341-3.953-1.949-.879-.401-1.648-1.056-2.637-1.236-.527-.095-.782-.633-1.24-.855-1.225-.589-2.392-1.294-3.83-1.339-.5-.016-1.076-.287-1.466-.618-1.456-1.236-3.3-1.477-5.018-1.991-1.145-.342-2.199-.908-3.367-1.176-.695-.159-1.354-.478-2.094-.401-.088.009-.2.015-.264-.03-1.35-.955-3.012-.78-4.491-1.257-.464-.15-1.008-.212-1.307-.692-.244-.768.558-1.12.69-1.74.3-.569.568-1.152.781-1.76.125-.354.228-.737.645-.886 1.648.262 3.258.7 4.886 1.057 2.98.654 5.811 1.791 8.668 2.807 2.747.978 5.486 2.027 8.119 3.305.859.417 1.758.745 2.633 1.116 2.434 1.027 4.65 2.448 6.859 3.836 2.463 1.548 5.11 2.823 7.334 4.759.706.614 1.534 1.125 2.318 1.664 2.271 1.558 4.287 3.402 6.156 5.411.347.374.821.592 1.119 1.012l-.508.358c-.284.167-.618.208-.907.36l.001-.002q-.804.357-1.609.712c-.621.112-1.15.532-1.802.543z"/><path fill="#FDAA9B" d="M131.679 146.862c-.423.059-.753-.098-1.028-.415-.794-.92-1.728-1.7-2.593-2.535-1.055-1.016-2.14-1.968-3.318-2.811-2.264-1.619-4.373-3.487-6.834-4.787-1.94-1.025-3.768-2.235-5.628-3.361-1.921-1.163-3.903-2.155-5.923-3.074a145 145 0 0 0-8.638-3.592c-2.279-.86-4.583-1.696-6.91-2.376-1.86-.544-3.755-1.103-5.702-1.373-.522-.072-1.055-.206-1.487-.558-.287-.298-.22-.583.032-.86.368-1.238.094-2.508.185-3.76l.157.173.005 1.966c.459 1.276 1.683 1.171 2.668 1.399a92 92 0 0 1 11.052 3.304c3.023 1.114 5.962 2.44 8.917 3.712a44 44 0 0 1 5.326 2.73c1.325.801 2.749 1.416 4.079 2.225 2.016 1.228 3.891 2.664 5.905 3.879 1.696 1.023 3.215 2.277 4.732 3.504 1.565 1.267 3.196 2.501 4.507 4.057.558.661 1.471.944 1.842 1.787-.04.496-.528.393-.795.589l-.178.144-.373.032z"/><path fill="#FDEEDB" d="M130.264 147.582c.251-.249.555-.364.907-.36-.238.279-.552.373-.907.36"/><path fill="#FDAA9B" d="M132.987 146.165c-1.387-.736-2.329-1.988-3.459-3.016-1.93-1.754-3.896-3.494-6.035-4.948-2.626-1.784-5.206-3.651-7.972-5.245a150 150 0 0 0-8.655-4.59c-2.765-1.358-5.716-2.337-8.557-3.551-3.273-1.399-6.733-2.209-10.113-3.266-.987-.308-2.026-.472-3.053-.625-.871-.129-1.386-.451-1.146-1.424 2.937.65 5.826 1.47 8.713 2.314 4.529 1.324 8.956 2.937 13.172 5.009 3.418 1.679 6.981 3.115 10.186 5.202 2.716 1.769 5.459 3.496 8.117 5.355 2.567 1.796 4.913 3.854 7.217 5.952.82.748 1.601 1.595 2.303 2.484a3 3 0 0 0-.027.157c-.218.108-.389.384-.691.193z"/><path fill="#FDEFDE" d="m132.987 146.165.692-.194c-.139.312-.449.399-.717.542-.229.12-.468.198-.732.174z"/><path fill="#FCEDDA" d="M82.382 124.691c-.157.614-.672 1.024-.91 1.591-1.08.977-2.052 2.071-3.369 2.778-4.2 2.253-9.174 1.28-12.191-2.412-.112-.136-.262-.242-.393-.361q-.365-.708-.732-1.415c1.042-.795 2.312-.895 3.53-1.059 2.84-.38 5.704-.265 8.534.029 1.846.191 3.728.311 5.531.849"/><path fill="#FCEDD9" d="M82.204 134.684c-.012 1.777-1.397 3.082-3.246 3.062-1.84-.021-3.437-1.641-3.4-3.449.033-1.66 1.438-2.992 3.156-2.995 2-.003 3.504 1.456 3.49 3.382"/><path fill="#FDEFDD" d="M82.382 124.691c-.76.439-1.537.053-2.27-.04-1.793-.229-3.583-.606-5.381-.62-2.945-.023-5.93-.312-8.804.674-.374.129-.75.183-1.14.167-.727-.963-.838-2.158-1.237-3.245l-.023-.333.021-.534c.212.225.401.365.77.244 1.52-.498 3.027-.905 4.7-.749.8.075 1.68-.441 2.585-.451.323-.004.642-.086.958.032 1.064.4 2.17.076 3.257.158 2.022.154 3.981.623 5.975.909.617.089 1.223.256 1.855.22l-.032.86c-.471.876-.563 1.924-1.235 2.709z"/></g></g><defs><clipPath id="a"><path fill="#fff" d="M.02 0h219.96v256H.02z"/></clipPath></defs></svg>