<svg width="128" height="128" viewBox="0 0 128 128" fill="none" xmlns="http://www.w3.org/2000/svg">
<path opacity="0.4" d="M64 127.999C99.3459 127.999 128 99.3461 128 63.9997C128 28.6536 99.3459 0 64 0C28.6538 0 0 28.6536 0 63.9997C0 99.3461 28.6538 127.999 64 127.999Z" fill="#D9D9D9"/>
<path d="M63.9998 31.5511C50.7518 31.5511 39.9998 42.303 39.9998 55.5507C39.9998 68.5426 50.1758 79.1026 63.6798 79.4866H64.2558H64.7038H64.8318C77.7598 79.0386 87.9358 68.5426 87.9998 55.5507C87.9998 42.303 77.2478 31.5511 63.9998 31.5511Z" fill="#132743"/>
<path d="M107.397 111.04C96.0046 121.536 80.7726 128 64.0046 128C47.2366 128 32.0045 121.536 20.6125 111.04C22.1485 105.216 26.3085 99.9041 32.3885 95.8081C49.8606 84.1602 78.2766 84.1602 95.6206 95.8081C101.765 99.9041 105.861 105.216 107.397 111.04Z" fill="#132743"/>
</svg>
