<svg width="96" height="96" viewBox="0 0 96 96" fill="none" xmlns="http://www.w3.org/2000/svg">
<path opacity="0.4" d="M48 95.9995C74.5094 95.9995 96 74.5095 96 47.9997C96 21.4902 74.5094 0 48 0C21.4903 0 0 21.4902 0 47.9997C0 74.5095 21.4903 95.9995 48 95.9995Z" fill="#D9D9D9"/>
<path d="M48 23.6633C38.064 23.6633 30 31.7273 30 41.6631C30 51.407 37.632 59.327 47.76 59.615H48.192H48.528H48.624C58.32 59.279 65.952 51.407 66 41.6631C66 31.7273 57.936 23.6633 48 23.6633Z" fill="#132743"/>
<path d="M80.5475 83.2801C72.0035 91.152 60.5795 96 48.0035 96C35.4275 96 24.0035 91.152 15.4595 83.2801C16.6115 78.9121 19.7315 74.9281 24.2915 71.8561C37.3955 63.1201 58.7075 63.1201 71.7155 71.8561C76.3235 74.9281 79.3955 78.9121 80.5475 83.2801Z" fill="#132743"/>
</svg>
