<svg width="24" height="24" viewBox="0 0 24 24" fill="none" xmlns="http://www.w3.org/2000/svg">
<path d="M18.0001 5.99982C17.8125 5.81235 17.5582 5.70703 17.2931 5.70703C17.0279 5.70703 16.7736 5.81235 16.5861 5.99982L12.0001 10.5858L7.41406 5.99982C7.22653 5.81235 6.97223 5.70703 6.70706 5.70703C6.4419 5.70703 6.18759 5.81235 6.00006 5.99982C5.81259 6.18735 5.70728 6.44165 5.70728 6.70682C5.70728 6.97198 5.81259 7.22629 6.00006 7.41382L10.5861 11.9998L6.00006 16.5858C5.81259 16.7733 5.70728 17.0277 5.70728 17.2928C5.70728 17.558 5.81259 17.8123 6.00006 17.9998C6.18759 18.1873 6.4419 18.2926 6.70706 18.2926C6.97223 18.2926 7.22653 18.1873 7.41406 17.9998L12.0001 13.4138L16.5861 17.9998C16.7736 18.1873 17.0279 18.2926 17.2931 18.2926C17.5582 18.2926 17.8125 18.1873 18.0001 17.9998C18.1875 17.8123 18.2928 17.558 18.2928 17.2928C18.2928 17.0277 18.1875 16.7733 18.0001 16.5858L13.4141 11.9998L18.0001 7.41382C18.1875 7.22629 18.2928 6.97198 18.2928 6.70682C18.2928 6.44165 18.1875 6.18735 18.0001 5.99982V5.99982Z" fill="#132743"/>
</svg>
