<svg width="24" height="24" viewBox="0 0 24 24" fill="none" xmlns="http://www.w3.org/2000/svg">
<g clip-path="url(#clip0_498_6292)">
<path d="M23.707 0.293275C23.5195 0.105804 23.2652 0.000488281 23 0.000488281C22.7349 0.000488281 22.4806 0.105804 22.293 0.293275L12 10.5863L1.70703 0.293275C1.5195 0.105804 1.26519 0.000488281 1.00003 0.000488281C0.734866 0.000488281 0.480558 0.105804 0.293031 0.293275V0.293275C0.10556 0.480802 0.000244141 0.735111 0.000244141 1.00027C0.000244141 1.26544 0.10556 1.51975 0.293031 1.70727L10.586 12.0003L0.293031 22.2933C0.10556 22.4808 0.000244141 22.7351 0.000244141 23.0003C0.000244141 23.2654 0.10556 23.5197 0.293031 23.7073V23.7073C0.480558 23.8947 0.734866 24.0001 1.00003 24.0001C1.26519 24.0001 1.5195 23.8947 1.70703 23.7073L12 13.4143L22.293 23.7073C22.4806 23.8947 22.7349 24.0001 23 24.0001C23.2652 24.0001 23.5195 23.8947 23.707 23.7073C23.8945 23.5197 23.9998 23.2654 23.9998 23.0003C23.9998 22.7351 23.8945 22.4808 23.707 22.2933L13.414 12.0003L23.707 1.70727C23.8945 1.51975 23.9998 1.26544 23.9998 1.00027C23.9998 0.735111 23.8945 0.480802 23.707 0.293275V0.293275Z" fill="#132743"/>
</g>
<defs>
<clipPath id="clip0_498_6292">
<rect width="24" height="24" fill="white"/>
</clipPath>
</defs>
</svg>
