<svg width="24" height="24" viewBox="0 0 24 24" fill="none" xmlns="http://www.w3.org/2000/svg">
<g clip-path="url(#clip0_816_11233)">
<path d="M1.50996 17.9208C1.70694 17.921 1.90203 17.8823 2.08396 17.8068C2.26589 17.7313 2.43107 17.6205 2.56996 17.4808L10.243 9.80879C10.4751 9.57657 10.7507 9.39237 11.0541 9.26669C11.3575 9.14101 11.6826 9.07632 12.011 9.07632C12.3393 9.07632 12.6645 9.14101 12.9678 9.26669C13.2712 9.39237 13.5468 9.57657 13.779 9.80879L21.44 17.4708C21.5783 17.614 21.7438 17.7283 21.9269 17.8069C22.1099 17.8855 22.3067 17.9269 22.5059 17.9287C22.705 17.9304 22.9025 17.8924 23.0869 17.817C23.2712 17.7416 23.4387 17.6302 23.5795 17.4894C23.7204 17.3485 23.8318 17.1811 23.9072 16.9967C23.9826 16.8124 24.0206 16.6148 24.0188 16.4157C24.0171 16.2165 23.9757 16.0197 23.8971 15.8367C23.8185 15.6537 23.7042 15.4882 23.561 15.3498L15.9 7.68779C14.8679 6.65762 13.4692 6.07904 12.011 6.07904C10.5527 6.07904 9.15405 6.65762 8.12196 7.68779L0.448958 15.3598C0.239042 15.5696 0.0960714 15.8369 0.0381373 16.128C-0.0197968 16.419 0.00990933 16.7207 0.123497 16.9949C0.237084 17.2691 0.429448 17.5034 0.676247 17.6682C0.923045 17.833 1.21319 17.9209 1.50996 17.9208V17.9208Z" fill="#132743"/>
</g>
<defs>
<clipPath id="clip0_816_11233">
<rect width="24" height="24" fill="white" transform="matrix(1 0 0 -1 0 24)"/>
</clipPath>
</defs>
</svg>
