<svg width="32" height="32" viewBox="0 0 32 32" fill="none" xmlns="http://www.w3.org/2000/svg">
<circle cx="16" cy="16" r="10" stroke="#132743" stroke-width="2.4"/>
<path d="M14.4727 17.8909V17.6727C14.4727 17.1727 14.5121 16.7742 14.5909 16.4773C14.6697 16.1803 14.7864 15.9424 14.9409 15.7636C15.0955 15.5818 15.2848 15.4182 15.5091 15.2727C15.703 15.1454 15.8758 15.0227 16.0273 14.9045C16.1818 14.7864 16.303 14.6606 16.3909 14.5273C16.4818 14.3939 16.5273 14.2424 16.5273 14.0727C16.5273 13.9212 16.4909 13.7879 16.4182 13.6727C16.3455 13.5576 16.247 13.4682 16.1227 13.4045C15.9985 13.3409 15.8606 13.3091 15.7091 13.3091C15.5455 13.3091 15.3939 13.347 15.2545 13.4227C15.1182 13.4985 15.0076 13.603 14.9227 13.7364C14.8409 13.8697 14.8 14.0242 14.8 14.2H12.4727C12.4788 13.5333 12.6303 12.9924 12.9273 12.5773C13.2242 12.1591 13.6182 11.853 14.1091 11.6591C14.6 11.4621 15.1394 11.3636 15.7273 11.3636C16.3758 11.3636 16.9545 11.4591 17.4636 11.65C17.9727 11.8379 18.3742 12.1227 18.6682 12.5045C18.9621 12.8833 19.1091 13.3576 19.1091 13.9273C19.1091 14.2939 19.0455 14.6167 18.9182 14.8954C18.7939 15.1712 18.6197 15.4151 18.3955 15.6273C18.1742 15.8364 17.9152 16.0273 17.6182 16.2C17.4 16.3273 17.2167 16.4591 17.0682 16.5954C16.9197 16.7288 16.8076 16.8818 16.7318 17.0545C16.6561 17.2242 16.6182 17.4303 16.6182 17.6727V17.8909H14.4727ZM15.5818 20.9454C15.2303 20.9454 14.9288 20.8227 14.6773 20.5773C14.4288 20.3288 14.3061 20.0273 14.3091 19.6727C14.3061 19.3273 14.4288 19.0318 14.6773 18.7864C14.9288 18.5409 15.2303 18.4182 15.5818 18.4182C15.9152 18.4182 16.2091 18.5409 16.4636 18.7864C16.7212 19.0318 16.8515 19.3273 16.8545 19.6727C16.8515 19.9091 16.7894 20.1242 16.6682 20.3182C16.55 20.5091 16.3955 20.6621 16.2045 20.7773C16.0136 20.8894 15.8061 20.9454 15.5818 20.9454Z" fill="#132743"/>
</svg>
