<svg width="24" height="24" viewBox="0 0 24 24" fill="none" xmlns="http://www.w3.org/2000/svg">
<g clip-path="url(#clip0_498_6281)">
<path d="M22.9997 11.0005H20.9997V9.00049C20.9997 8.73527 20.8944 8.48092 20.7069 8.29338C20.5193 8.10585 20.265 8.00049 19.9997 8.00049C19.7345 8.00049 19.4802 8.10585 19.2926 8.29338C19.1051 8.48092 18.9998 8.73527 18.9998 9.00049V11.0005H16.9998C16.7345 11.0005 16.4802 11.1058 16.2926 11.2934C16.1051 11.4809 15.9998 11.7353 15.9998 12.0005C15.9998 12.2657 16.1051 12.52 16.2926 12.7076C16.4802 12.8951 16.7345 13.0005 16.9998 13.0005H18.9998V15.0005C18.9998 15.2657 19.1051 15.52 19.2926 15.7076C19.4802 15.8951 19.7345 16.0005 19.9997 16.0005C20.265 16.0005 20.5193 15.8951 20.7069 15.7076C20.8944 15.52 20.9997 15.2657 20.9997 15.0005V13.0005H22.9997C23.265 13.0005 23.5193 12.8951 23.7068 12.7076C23.8944 12.52 23.9997 12.2657 23.9997 12.0005C23.9997 11.7353 23.8944 11.4809 23.7068 11.2934C23.5193 11.1058 23.265 11.0005 22.9997 11.0005Z" fill="#132743"/>
<path d="M9 12C10.1867 12 11.3467 11.6481 12.3334 10.9888C13.3201 10.3295 14.0892 9.39246 14.5433 8.2961C14.9974 7.19975 15.1162 5.99335 14.8847 4.82946C14.6532 3.66558 14.0818 2.59648 13.2426 1.75736C12.4035 0.918247 11.3344 0.346802 10.1705 0.115291C9.00666 -0.11622 7.80026 0.00259972 6.7039 0.456726C5.60754 0.910851 4.67047 1.67989 4.01118 2.66658C3.35189 3.65328 3 4.81331 3 6C3.00159 7.59081 3.63424 9.11602 4.75911 10.2409C5.88399 11.3658 7.40919 11.9984 9 12ZM9 2C9.79113 2 10.5645 2.2346 11.2223 2.67412C11.8801 3.11365 12.3928 3.73836 12.6955 4.46927C12.9983 5.20017 13.0775 6.00444 12.9231 6.78036C12.7688 7.55629 12.3878 8.26902 11.8284 8.82843C11.269 9.38784 10.5563 9.7688 9.78036 9.92314C9.00444 10.0775 8.20017 9.99827 7.46927 9.69552C6.73836 9.39277 6.11365 8.88008 5.67412 8.22228C5.2346 7.56449 5 6.79113 5 6C5 4.93914 5.42143 3.92172 6.17157 3.17158C6.92172 2.42143 7.93913 2 9 2V2Z" fill="#132743"/>
<path d="M9 14.0005C6.61386 14.0031 4.32622 14.9522 2.63896 16.6395C0.951708 18.3267 0.00264685 20.6144 0 23.0005C0 23.2657 0.105357 23.5201 0.292893 23.7076C0.48043 23.8951 0.734784 24.0005 1 24.0005C1.26522 24.0005 1.51957 23.8951 1.70711 23.7076C1.89464 23.5201 2 23.2657 2 23.0005C2 21.144 2.7375 19.3635 4.05025 18.0507C5.36301 16.738 7.14348 16.0005 9 16.0005C10.8565 16.0005 12.637 16.738 13.9497 18.0507C15.2625 19.3635 16 21.144 16 23.0005C16 23.2657 16.1054 23.5201 16.2929 23.7076C16.4804 23.8951 16.7348 24.0005 17 24.0005C17.2652 24.0005 17.5196 23.8951 17.7071 23.7076C17.8946 23.5201 18 23.2657 18 23.0005C17.9974 20.6144 17.0483 18.3267 15.361 16.6395C13.6738 14.9522 11.3861 14.0031 9 14.0005V14.0005Z" fill="#132743"/>
</g>
<defs>
<clipPath id="clip0_498_6281">
<rect width="24" height="24" fill="white"/>
</clipPath>
</defs>
</svg>
