<svg width="444" height="444" viewBox="0 0 444 444" fill="none" xmlns="http://www.w3.org/2000/svg">
<rect width="444" height="444" rx="80" fill="#FCFDFF"/>
<circle cx="222" cy="222" r="222" fill="#FCFDFF"/>
<circle cx="220.951" cy="339.172" r="26.8281" fill="#132743"/>
<ellipse cx="221.5" cy="163" rx="65.5" ry="59" fill="#FCFDFF"/>
<path d="M221.364 75.5161C175.246 75.5161 138.019 112.744 138.019 158.861C138.019 214.425 221.26 297.643 221.26 297.643C221.26 297.643 304.709 214.425 304.709 158.861C304.709 112.744 267.481 75.5161 221.364 75.5161ZM221.364 103.298C252.202 103.298 276.927 128.301 276.927 158.861C276.927 189.699 252.202 214.425 221.364 214.425C190.804 214.425 165.8 189.699 165.8 158.861C165.8 128.301 190.804 103.298 221.364 103.298Z" fill="#FFB5B5"/>
<path d="M305.136 158.26C305.136 204.243 249.938 268.348 221.26 297.643C328.66 -24.3956 150.999 223.533 138 158.26C138 112.277 175.415 75 221.568 75C267.721 75 305.136 112.277 305.136 158.26Z" fill="#132743"/>
</svg>
