<svg width="24" height="24" viewBox="0 0 24 24" fill="none" xmlns="http://www.w3.org/2000/svg">
<g clip-path="url(#clip0_462_4956)">
<path d="M19 0H5C3.6744 0.00158786 2.40356 0.528882 1.46622 1.46622C0.528882 2.40356 0.00158786 3.6744 0 5L0 19C0.00158786 20.3256 0.528882 21.5964 1.46622 22.5338C2.40356 23.4711 3.6744 23.9984 5 24H19C20.3256 23.9984 21.5964 23.4711 22.5338 22.5338C23.4711 21.5964 23.9984 20.3256 24 19V5C23.9984 3.6744 23.4711 2.40356 22.5338 1.46622C21.5964 0.528882 20.3256 0.00158786 19 0V0ZM22 19C22 19.7956 21.6839 20.5587 21.1213 21.1213C20.5587 21.6839 19.7956 22 19 22H5C4.20435 22 3.44129 21.6839 2.87868 21.1213C2.31607 20.5587 2 19.7956 2 19V5C2 4.20435 2.31607 3.44129 2.87868 2.87868C3.44129 2.31607 4.20435 2 5 2H19C19.7956 2 20.5587 2.31607 21.1213 2.87868C21.6839 3.44129 22 4.20435 22 5V19Z" fill="#132743"/>
<path d="M9.33282 15.9193L5.41382 12.0003C5.22629 11.8128 4.97198 11.7075 4.70682 11.7075C4.44165 11.7075 4.18735 11.8128 3.99982 12.0003C3.81235 12.1878 3.70703 12.4421 3.70703 12.7073C3.70703 12.9725 3.81235 13.2268 3.99982 13.4143L7.91882 17.3333C8.10455 17.5191 8.32506 17.6665 8.56776 17.767C8.81047 17.8676 9.07061 17.9194 9.33332 17.9194C9.59603 17.9194 9.85617 17.8676 10.0989 17.767C10.3416 17.6665 10.5621 17.5191 10.7478 17.3333L19.9998 8.0813C20.1873 7.89377 20.2926 7.63946 20.2926 7.3743C20.2926 7.10913 20.1873 6.85482 19.9998 6.6673V6.6673C19.8123 6.47983 19.558 6.37451 19.2928 6.37451C19.0277 6.37451 18.7733 6.47983 18.5858 6.6673L9.33282 15.9193Z" fill="#132743"/>
</g>
<defs>
<clipPath id="clip0_462_4956">
<rect width="24" height="24" fill="white"/>
</clipPath>
</defs>
</svg>
