<svg xmlns="http://www.w3.org/2000/svg" width="current" height="current" fill="none" viewBox="0 0 174 42"><rect width="164" height="5" x="10" y="32" fill="#FFB5B5" rx="2.5"/><circle cx="9.977" cy="31.773" r="3.227" fill="#132743"/><ellipse cx="10.043" cy="10.584" fill="#fff" rx="7.878" ry="7.096"/><path fill="#FFB5B5" d="M10.027.062A10.01 10.01 0 0 0 .002 10.086c0 6.683 10.012 16.692 10.012 16.692S20.051 16.77 20.051 10.086A10.01 10.01 0 0 0 10.027.062m0 3.341a6.68 6.68 0 0 1 6.682 6.683 6.66 6.66 0 0 1-6.682 6.683 6.68 6.68 0 0 1-6.683-6.683c0-3.675 3.007-6.683 6.683-6.683"/><path fill="#132743" d="M20.102 10.014c0 5.53-6.639 13.24-10.088 16.764C22.932-11.955 1.564 17.865 0 10.014 0 4.484 4.5 0 10.051 0s10.051 4.483 10.051 10.014M34.193 34l-6.568-23.273h4.534l4.193 17.103h.216l4.477-17.103h4.125l4.49 17.114h.204l4.193-17.114h4.534L52.023 34h-4.16l-4.658-16.33h-.182L38.353 34zm31.253-10.227V34h-4.114V10.727h4.023v8.784h.205q.613-1.477 1.897-2.33 1.296-.863 3.296-.863 1.818 0 3.17.761 1.353.761 2.091 2.228.75 1.465.75 3.58V34h-4.113V23.523q0-1.761-.91-2.739-.897-.988-2.522-.988-1.09 0-1.955.477a3.34 3.34 0 0 0-1.34 1.352q-.478.886-.478 2.148M88.685 34.34q-2.626 0-4.534-1.091-1.9-1.102-2.92-3.114-1.024-2.022-1.024-4.761 0-2.693 1.023-4.727 1.035-2.046 2.886-3.182 1.853-1.148 4.353-1.148a8.8 8.8 0 0 1 3.045.523q1.442.51 2.546 1.59 1.113 1.08 1.75 2.75.636 1.66.636 3.955v1.262H82.139v-2.773h10.364q-.012-1.182-.511-2.102a3.7 3.7 0 0 0-1.398-1.466q-.886-.534-2.068-.534-1.262 0-2.216.613a4.2 4.2 0 0 0-1.489 1.591 4.6 4.6 0 0 0-.534 2.148v2.42q0 1.524.557 2.614.556 1.08 1.557 1.66 1 .567 2.34.567.898 0 1.626-.25a3.6 3.6 0 0 0 1.26-.761q.535-.5.808-1.239l3.84.432a6 6 0 0 1-1.386 2.66q-1.011 1.125-2.59 1.75-1.58.612-3.614.613M99.926 34V16.546h3.989v2.909h.182q.477-1.511 1.636-2.33 1.17-.83 2.67-.83.341 0 .762.034.431.024.716.08v3.784q-.262-.09-.83-.159a8 8 0 0 0-1.079-.08q-1.126 0-2.023.49a3.6 3.6 0 0 0-1.398 1.329q-.511.852-.511 1.966V34zm19.696.34q-2.625 0-4.534-1.09-1.898-1.102-2.92-3.114-1.023-2.022-1.023-4.761 0-2.693 1.023-4.727 1.034-2.046 2.886-3.182 1.853-1.148 4.352-1.148 1.614 0 3.046.523 1.443.51 2.545 1.59 1.114 1.08 1.75 2.75.636 1.66.637 3.955v1.262h-14.307v-2.773h10.363q-.011-1.182-.511-2.102a3.7 3.7 0 0 0-1.398-1.466q-.886-.534-2.068-.534-1.261 0-2.216.613a4.23 4.23 0 0 0-1.488 1.591 4.6 4.6 0 0 0-.535 2.148v2.42q0 1.524.557 2.614a3.97 3.97 0 0 0 1.557 1.66q1 .567 2.341.567.897 0 1.625-.25a3.6 3.6 0 0 0 1.261-.761q.534-.5.807-1.239l3.841.432a6 6 0 0 1-1.386 2.66q-1.012 1.125-2.591 1.75-1.58.612-3.614.613m10.776-4.658V26.33l9.875-15.603h2.795V15.5h-1.704l-6.648 10.534v.182H148.5v3.466zM141.5 34v-5.34l.045-1.5V10.726h3.978V34zm10.631 0v-3.046l8.079-7.92a38 38 0 0 0 1.932-2.08q.773-.909 1.159-1.76a4.35 4.35 0 0 0 .387-1.819q0-1.103-.5-1.886a3.33 3.33 0 0 0-1.376-1.228q-.875-.43-1.988-.431-1.148 0-2.012.477a3.3 3.3 0 0 0-1.34 1.33q-.466.862-.466 2.056h-4.012q0-2.215 1.012-3.852 1.011-1.637 2.784-2.534 1.784-.898 4.091-.898 2.34 0 4.113.875t2.75 2.398q.989 1.522.989 3.477 0 1.306-.5 2.568t-1.761 2.796q-1.25 1.534-3.512 3.716l-4.011 4.08v.158h10.136V34z"/></svg>