<svg xmlns="http://www.w3.org/2000/svg" width="168" height="291" fill="none"><circle cx="82.951" cy="264.172" r="26.828" fill="#132743"/><ellipse cx="83.5" cy="88" fill="#FCFDFF" rx="65.5" ry="59"/><path fill="#FFB5B5" d="M83.364.516C37.246.516.02 37.744.02 83.861c0 55.564 83.241 138.782 83.241 138.782s83.449-83.218 83.449-138.782c0-46.117-37.227-83.345-83.345-83.345m0 27.782c30.838 0 55.564 25.003 55.564 55.563a55.37 55.37 0 0 1-55.564 55.564c-30.56 0-55.563-24.726-55.563-55.564 0-30.56 25.003-55.563 55.563-55.563"/><path fill="#132743" d="M167.136 83.26c0 45.983-55.198 110.088-83.876 139.383C190.66-99.396 13 148.533 0 83.26 0 37.277 37.415 0 83.568 0s83.568 37.277 83.568 83.26"/></svg>