<svg width="168" height="291" viewBox="0 0 168 291" fill="none" xmlns="http://www.w3.org/2000/svg">
<circle cx="82.9512" cy="264.172" r="26.8281" fill="#132743"/>
<ellipse cx="83.5" cy="88" rx="65.5" ry="59" fill="#FCFDFF"/>
<path d="M83.3641 0.516113C37.2465 0.516113 0.019043 37.7436 0.019043 83.8612C0.019043 139.425 83.26 222.643 83.26 222.643C83.26 222.643 166.709 139.425 166.709 83.8612C166.709 37.7436 129.482 0.516113 83.3641 0.516113ZM83.3641 28.2978C114.202 28.2978 138.928 53.3013 138.928 83.8612C138.928 114.699 114.202 139.425 83.3641 139.425C52.8043 139.425 27.8007 114.699 27.8007 83.8612C27.8007 53.3013 52.8043 28.2978 83.3641 28.2978Z" fill="#FFB5B5"/>
<path d="M167.136 83.2597C167.136 129.243 111.938 193.348 83.2597 222.643C190.66 -99.3956 12.9995 148.533 0 83.2597C0 37.2766 37.4147 0 83.5681 0C129.721 0 167.136 37.2766 167.136 83.2597Z" fill="#132743"/>
</svg>
