<svg width="24" height="24" viewBox="0 0 24 24" fill="none" xmlns="http://www.w3.org/2000/svg">
<g clip-path="url(#clip0_2348_17784)">
<path d="M12 11.9999C12.7911 11.9999 13.5645 11.7653 14.2223 11.3257C14.8801 10.8862 15.3928 10.2615 15.6955 9.5306C15.9983 8.79969 16.0775 7.99542 15.9231 7.2195C15.7688 6.44357 15.3878 5.73084 14.8284 5.17143C14.269 4.61202 13.5563 4.23106 12.7804 4.07672C12.0044 3.92238 11.2002 4.00159 10.4693 4.30434C9.73836 4.60709 9.11365 5.11978 8.67412 5.77758C8.2346 6.43538 8 7.20873 8 7.99986C8 9.06073 8.42143 10.0781 9.17157 10.8283C9.92172 11.5784 10.9391 11.9999 12 11.9999ZM12 5.99986C12.3956 5.99986 12.7822 6.11716 13.1111 6.33692C13.44 6.55668 13.6964 6.86904 13.8478 7.23449C13.9991 7.59995 14.0387 8.00208 13.9616 8.39004C13.8844 8.778 13.6939 9.13437 13.4142 9.41407C13.1345 9.69378 12.7781 9.88426 12.3902 9.96143C12.0022 10.0386 11.6001 9.999 11.2346 9.84762C10.8692 9.69624 10.5568 9.4399 10.3371 9.111C10.1173 8.7821 10 8.39542 10 7.99986C10 7.46943 10.2107 6.96072 10.5858 6.58565C10.9609 6.21057 11.4696 5.99986 12 5.99986ZM16 22.0299L24 23.9779V13.4829C23.9998 12.8387 23.7923 12.2118 23.4081 11.6947C23.024 11.1777 22.4836 10.798 21.867 10.6119L19.767 9.91186C19.9206 9.28812 19.9988 8.64822 20 8.00586C20 5.88413 19.1571 3.8493 17.6569 2.34901C16.1566 0.848714 14.1217 0.00585938 12 0.00585938C9.87827 0.00585938 7.84344 0.848714 6.34315 2.34901C4.84286 3.8493 4 5.88413 4 8.00586C4.00296 8.41179 4.03639 8.81693 4.1 9.21786C3.64587 9.03681 3.15429 8.96981 2.66827 9.02271C2.18225 9.0756 1.7166 9.24679 1.31205 9.52129C0.907496 9.7958 0.576373 10.1653 0.347646 10.5973C0.118919 11.0294 -0.000443211 11.511 1.23664e-06 11.9999V21.7519L7.983 24.0329L16 22.0299ZM7.757 3.76386C8.88425 2.65261 10.4049 2.03183 11.9878 2.03674C13.5707 2.04165 15.0875 2.67185 16.2079 3.79007C17.3282 4.90829 17.9612 6.42392 17.9691 8.00679C17.977 9.58966 17.3591 11.1115 16.25 12.2409L12 16.3999L7.757 12.2489C6.63187 11.1237 5.99978 9.59759 5.99978 8.00636C5.99978 6.41513 6.63187 4.88907 7.757 3.76386ZM2 11.9999C1.99874 11.8349 2.03891 11.6723 2.11684 11.527C2.19476 11.3816 2.30795 11.2581 2.446 11.1679C2.59041 11.0731 2.75678 11.017 2.92911 11.0051C3.10143 10.9932 3.27392 11.0258 3.43 11.0999L4.864 11.6179C5.24766 12.3776 5.74958 13.0716 6.351 13.6739L12 19.1999L17.657 13.6669C18.2133 13.1114 18.6849 12.4773 19.057 11.7849L21.274 12.5259C21.4828 12.5856 21.6665 12.7117 21.7973 12.885C21.9281 13.0584 21.9989 13.2697 21.999 13.4869V21.4359L16 19.9699L8.02 21.9699L2 20.2459V11.9999Z" fill="#132743"/>
</g>
<defs>
<clipPath id="clip0_2348_17784">
<rect width="24" height="24" fill="white"/>
</clipPath>
</defs>
</svg>
