<svg width="current" height="current" viewBox="0 0 24 24" fill="none" xmlns="http://www.w3.org/2000/svg">
<g clip-path="url(#clip0_349_1859)">
<path d="M0.999787 24.0006C1.26498 24.0005 1.51929 23.8951 1.70679 23.7076L8.32579 17.0886L9.57379 18.3806C10.5144 19.3746 11.8108 19.955 13.1788 19.9946C13.6348 19.9959 14.0877 19.9192 14.5178 19.7676C15.1823 19.5388 15.7662 19.122 16.1984 18.5678C16.6306 18.0136 16.8927 17.3458 16.9528 16.6456C17.0613 15.6314 16.9861 14.606 16.7308 13.6186L16.5168 12.5766C16.4762 12.4099 16.4792 12.2357 16.5255 12.0705C16.5717 11.9054 16.6596 11.7549 16.7808 11.6336L18.3678 10.0456C18.4304 9.98271 18.5151 9.94683 18.6038 9.94556C18.6349 9.93977 18.667 9.94278 18.6965 9.95427C18.7261 9.96575 18.7518 9.98525 18.7708 10.0106C19.2731 10.5432 19.9488 10.8793 20.6767 10.9585C21.4045 11.0377 22.1367 10.8547 22.7418 10.4426C23.0968 10.1894 23.3924 9.86198 23.608 9.48297C23.8236 9.10395 23.954 8.6825 23.99 8.24796C24.0261 7.81342 23.967 7.37624 23.8169 6.96686C23.6668 6.55749 23.4292 6.18575 23.1208 5.87756L18.1998 0.954558C17.6945 0.436659 17.0232 0.112842 16.3034 0.0397235C15.5835 -0.0333952 14.8609 0.148837 14.2618 0.554558C13.9067 0.807591 13.611 1.135 13.3953 1.51397C13.1796 1.89295 13.0492 2.31438 13.013 2.74892C12.9768 3.18346 13.0358 3.62067 13.1859 4.03009C13.3359 4.4395 13.5734 4.81129 13.8818 5.11956L13.9578 5.19556C14.0151 5.25325 14.0472 5.33126 14.0472 5.41256C14.0472 5.49386 14.0151 5.57186 13.9578 5.62956L12.3578 7.22956C12.235 7.35204 12.0826 7.4405 11.9153 7.48626C11.7481 7.53202 11.5718 7.5335 11.4038 7.49056L10.5868 7.28156C9.58184 7.0191 8.53777 6.94017 7.50479 7.04856C6.77215 7.12444 6.07647 7.40819 5.49976 7.86637C4.92305 8.32454 4.48935 8.93805 4.24979 9.63456C3.98835 10.3503 3.9368 11.1259 4.1012 11.8699C4.2656 12.614 4.63912 13.2956 5.17779 13.8346L6.93579 15.6546L0.292787 22.2936C0.152977 22.4334 0.0577711 22.6116 0.0192035 22.8055C-0.0193641 22.9995 0.000438906 23.2005 0.0761089 23.3832C0.151779 23.5659 0.279919 23.7221 0.444328 23.832C0.608738 23.9418 0.802037 24.0005 0.999787 24.0006ZM6.13479 10.3006C6.24747 9.95988 6.4565 9.65916 6.73657 9.43483C7.01663 9.21049 7.35572 9.07215 7.71279 9.03656C7.94301 9.0126 8.17432 9.00058 8.40579 9.00056C8.9731 9.00059 9.53806 9.07352 10.0868 9.21756L10.9098 9.42756C11.414 9.55513 11.9427 9.54987 12.4443 9.41229C12.9458 9.27472 13.4032 9.00952 13.7718 8.64256L15.3718 7.04256C15.8035 6.60955 16.046 6.02302 16.046 5.41156C16.046 4.80009 15.8035 4.21357 15.3718 3.78056L15.2958 3.70456C15.1922 3.60126 15.1126 3.47651 15.0625 3.3391C15.0124 3.20168 14.9931 3.05496 15.0059 2.90926C15.0187 2.76356 15.0632 2.62244 15.1365 2.49584C15.2097 2.36925 15.3098 2.26026 15.4298 2.17656C15.6432 2.04738 15.8946 1.99575 16.1416 2.03036C16.3886 2.06497 16.6161 2.18371 16.7858 2.36656L21.7098 7.29056C21.8133 7.39386 21.893 7.51861 21.943 7.65602C21.9931 7.79343 22.0125 7.94016 21.9997 8.08586C21.9869 8.23155 21.9423 8.37268 21.8691 8.49927C21.7958 8.62587 21.6957 8.73486 21.5758 8.81856C21.3601 8.9495 21.1055 9.00116 20.8558 8.96466C20.6061 8.92816 20.377 8.80577 20.2078 8.61856C20.002 8.40641 19.7559 8.23765 19.4838 8.12223C19.2117 8.00681 18.9193 7.94708 18.6238 7.94656C18.0004 7.9494 17.4025 8.1947 16.9568 8.63056L15.3708 10.2176C15.0107 10.5779 14.7482 11.0241 14.6083 11.514C14.4683 12.0039 14.4554 12.5213 14.5708 13.0176L14.7898 14.0756C14.9916 14.847 15.0529 15.6484 14.9708 16.4416C14.9469 16.765 14.8285 17.0743 14.6302 17.3311C14.432 17.5878 14.1627 17.7806 13.8558 17.8856C13.3442 18.0201 12.805 18.0069 12.3007 17.8476C11.7963 17.6883 11.3473 17.3894 11.0058 16.9856L6.60579 12.4356C6.33142 12.1619 6.14124 11.8154 6.05776 11.437C5.97429 11.0586 6.00102 10.6642 6.13479 10.3006Z" fill="#132743"/>
</g>
<defs>
<clipPath id="clip0_349_1859">
<rect width="24" height="24" fill="white"/>
</clipPath>
</defs>
</svg>
