<svg xmlns="http://www.w3.org/2000/svg" width="24" height="24" fill="none"><g clip-path="url(#a)"><path fill="#374957" d="m23.121 9.069-7.585-7.586a5.01 5.01 0 0 0-7.072 0L.88 9.069a2.98 2.98 0 0 0-.88 2.12v9.818a3 3 0 0 0 3 3h18a3 3 0 0 0 3-3V11.19a2.98 2.98 0 0 0-.879-2.121m-8.12 12.938H9v-3.934a3 3 0 0 1 6 0zm7-1a1 1 0 0 1-1 1h-4v-3.934a5 5 0 0 0-10 0v3.934H3a1 1 0 0 1-1-1V11.19a1 1 0 0 1 .292-.707L9.878 2.9a3.01 3.01 0 0 1 4.244 0l7.585 7.586c.186.187.291.44.293.704z"/></g><defs><clipPath id="a"><path fill="#fff" d="M0 0h24v24H0z"/></clipPath></defs></svg>