<svg xmlns="http://www.w3.org/2000/svg" width="current" height="current" fill="none" viewBox="0 0 20 20"><g fill="#132743" clip-path="url(#a)"><path d="M15.353 5.974a.8.8 0 0 0-.203 0c-1.496-.045-2.683-1.19-2.683-2.595 0-1.433 1.245-2.605 2.79-2.605 1.533 0 2.788 1.163 2.788 2.605-.01 1.406-1.197 2.55-2.692 2.595M18.5 12.22c-1.08.676-2.595.929-3.994.758.366-.74.56-1.56.569-2.425a5.24 5.24 0 0 0-.617-2.505c1.428-.18 2.942.072 4.033.748 1.524.937 1.524 2.478.01 3.425M4.653 5.974a.8.8 0 0 1 .202 0c1.496-.045 2.683-1.19 2.683-2.595 0-1.442-1.245-2.605-2.789-2.605-1.534 0-2.779 1.163-2.779 2.605 0 1.406 1.187 2.55 2.683 2.595m.107 4.579c0 .875.202 1.704.57 2.452-1.361.135-2.78-.135-3.822-.775-1.524-.947-1.524-2.488 0-3.434 1.033-.65 2.49-.91 3.86-.766a5.4 5.4 0 0 0-.608 2.523m5.374 2.722a1.2 1.2 0 0 0-.251 0c-1.775-.054-3.194-1.415-3.194-3.092.01-1.712 1.486-3.1 3.33-3.1 1.832 0 3.318 1.388 3.318 3.1-.01 1.677-1.418 3.038-3.203 3.092M6.998 15.14c-1.457.91-1.457 2.407 0 3.308 1.66 1.037 4.38 1.037 6.04 0 1.457-.91 1.457-2.406 0-3.307-1.65-1.037-4.37-1.037-6.04 0"/></g><defs><clipPath id="a"><path fill="#fff" d="M0 0h20v20H0z"/></clipPath></defs></svg>