<svg xmlns="http://www.w3.org/2000/svg" width="current" height="current" fill="none" viewBox="0 0 24 25"><path fill="#132743" d="M11.443 22.885C5.135 22.885 0 17.75 0 11.442S5.135-.001 11.443-.001s11.443 5.135 11.443 11.443-5.135 11.443-11.443 11.443m0-21.211c-5.392 0-9.768 4.387-9.768 9.768s4.376 9.768 9.768 9.768 9.768-4.387 9.768-9.768-4.376-9.768-9.768-9.768m11.722 22.327a.83.83 0 0 1-.591-.245l-2.233-2.233a.84.84 0 0 1 0-1.183.84.84 0 0 1 1.183 0l2.233 2.232a.84.84 0 0 1 0 1.184.83.83 0 0 1-.592.245"/></svg>