<svg xmlns="http://www.w3.org/2000/svg" width="current" height="current" fill="none" viewBox="0 0 48 48"><path fill="#132743" d="M23.722 30.177a6.184 6.184 0 0 1-6.182-6.182 6.184 6.184 0 0 1 6.182-6.182 6.184 6.184 0 0 1 6.182 6.182 6.184 6.184 0 0 1-6.182 6.182m0-9.891a3.715 3.715 0 0 0-3.71 3.71 3.715 3.715 0 0 0 3.71 3.708 3.715 3.715 0 0 0 3.709-3.709 3.715 3.715 0 0 0-3.71-3.71"/><path fill="#132743" d="M29.013 40.793a4.5 4.5 0 0 1-1.038-.132 4.05 4.05 0 0 1-2.424-1.83l-.197-.33c-.973-1.68-2.308-1.68-3.28 0l-.182.314a3.95 3.95 0 0 1-2.424 1.846 3.86 3.86 0 0 1-3.016-.412l-2.836-1.632A4.38 4.38 0 0 1 12 32.65c.479-.84.61-1.599.33-2.077s-.989-.758-1.961-.758A4.376 4.376 0 0 1 6 25.445v-2.9a4.376 4.376 0 0 1 4.369-4.37c.972 0 1.681-.28 1.961-.758s.165-1.236-.33-2.077a4.4 4.4 0 0 1-.428-3.313 4.25 4.25 0 0 1 2.044-2.655l2.852-1.632c1.863-1.104 4.32-.461 5.44 1.435l.198.33c.973 1.68 2.308 1.68 3.28 0l.182-.314c1.121-1.912 3.577-2.555 5.457-1.434l2.835 1.632a4.377 4.377 0 0 1 1.615 5.968c-.477.84-.61 1.599-.33 2.077.281.478.99.758 1.963.758a4.376 4.376 0 0 1 4.368 4.369v2.901a4.376 4.376 0 0 1-4.368 4.369c-.973 0-1.682.28-1.962.758s-.165 1.236.33 2.077a4.3 4.3 0 0 1 .428 3.314 4.25 4.25 0 0 1-2.044 2.654l-2.852 1.632a4.1 4.1 0 0 1-1.995.527m-5.291-6.1c1.467 0 2.835.924 3.775 2.556l.181.313c.198.346.528.594.923.693.396.098.792.049 1.121-.149l2.852-1.648a1.907 1.907 0 0 0 .71-2.589c-.94-1.615-1.056-3.28-.33-4.55.725-1.269 2.225-1.994 4.104-1.994a1.886 1.886 0 0 0 1.896-1.896v-2.901c0-1.039-.84-1.896-1.896-1.896-1.88 0-3.38-.726-4.105-1.995s-.61-2.934.33-4.55c.247-.428.313-.94.181-1.434a1.93 1.93 0 0 0-.873-1.154l-2.852-1.632c-.71-.429-1.649-.181-2.077.544l-.182.313c-.94 1.632-2.308 2.555-3.775 2.555s-2.835-.923-3.775-2.555l-.181-.33a1.514 1.514 0 0 0-2.044-.527l-2.852 1.648a1.907 1.907 0 0 0-.71 2.589c.94 1.615 1.056 3.28.33 4.55-.725 1.269-2.225 1.994-4.104 1.994a1.886 1.886 0 0 0-1.896 1.896v2.901c0 1.039.84 1.896 1.896 1.896 1.879 0 3.38.726 4.104 1.995.726 1.27.61 2.934-.33 4.55-.247.428-.312.94-.18 1.434.131.495.445.89.873 1.154l2.852 1.632a1.46 1.46 0 0 0 1.138.165 1.57 1.57 0 0 0 .94-.709l.18-.313c.94-1.616 2.308-2.555 3.776-2.555"/></svg>