<svg xmlns="http://www.w3.org/2000/svg" width="current" height="current" fill="none" viewBox="0 0 24 24"><path fill="#132743" d="M8.208 0h.152c5.198 0 7.704 2.045 8.137 6.625a.88.88 0 0 1-.796.958.895.895 0 0 1-.96-.794c-.34-3.67-2.073-5.036-6.393-5.036h-.152c-4.765 0-6.451 1.682-6.451 6.438v7.618c0 4.756 1.686 6.438 6.45 6.438h.153c4.344 0 6.076-1.39 6.393-5.13a.89.89 0 0 1 .96-.794.88.88 0 0 1 .808.947C16.11 21.92 13.593 24 8.359 24h-.152C2.46 24 0 21.546 0 15.81V8.19C0 2.455 2.46 0 8.208 0"/><path fill="#132743" d="M8.49 11.124h13.324c.48 0 .878.397.878.876 0 .48-.398.877-.878.877H8.49A.884.884 0 0 1 7.612 12c0-.479.398-.876.878-.876"/><path fill="#132743" d="M19.203 7.21a.87.87 0 0 1 .62.256l3.922 3.915c.34.338.34.9 0 1.238l-3.922 3.915a.885.885 0 0 1-1.24 0 .88.88 0 0 1 0-1.24l3.3-3.294-3.3-3.295a.88.88 0 0 1 0-1.239.85.85 0 0 1 .62-.257"/></svg>