<svg xmlns="http://www.w3.org/2000/svg" width="24" height="24" fill="none"><g fill="#132743" clip-path="url(#a)"><path d="M23 22H3a1 1 0 0 1-1-1V1a1 1 0 0 0-2 0v20a3 3 0 0 0 3 3h20a1 1 0 0 0 0-2"/><path d="M15 20.001a1 1 0 0 0 1-1v-7a1 1 0 0 0-2 0v7a1 1 0 0 0 1 1m-8 0a1 1 0 0 0 1-1v-7a1 1 0 1 0-2 0v7a1 1 0 0 0 1 1M19 20a1 1 0 0 0 1-1V7a1 1 0 1 0-2 0v12a1 1 0 0 0 1 1m-8 0a1 1 0 0 0 1-1V7a1 1 0 0 0-2 0v12a1 1 0 0 0 1 1"/></g><defs><clipPath id="a"><path fill="#fff" d="M0 0h24v24H0z"/></clipPath></defs></svg>